<svg width="20" height="21" viewBox="0 0 20 21" fill="none" xmlns="http://www.w3.org/2000/svg">
<path fill-rule="evenodd" clip-rule="evenodd" d="M9.55554 9.09739C9.55554 9.15492 9.60218 9.20156 9.65971 9.20156H10.5119V8.2452H9.55554V9.09739ZM9.55554 7.6202H10.5119V6.66384H9.65971C9.60218 6.66384 9.55554 6.71048 9.55554 6.76801V7.6202ZM11.1369 6.66384V7.6202H12.0933V6.76801C12.0933 6.71048 12.0466 6.66384 11.9891 6.66384H11.1369ZM12.0933 8.2452H11.1369V9.20156H11.9891C12.0466 9.20156 12.0933 9.15492 12.0933 9.09739V8.2452ZM9.65971 9.82656C9.257 9.82656 8.93054 9.5001 8.93054 9.09739V6.76801C8.93054 6.3653 9.257 6.03884 9.65971 6.03884H11.9891C12.3918 6.03884 12.7183 6.3653 12.7183 6.76801V9.09739C12.7183 9.5001 12.3918 9.82656 11.9891 9.82656H9.65971Z" fill="#05A984"/>
<path fill-rule="evenodd" clip-rule="evenodd" d="M5.99841 14.3795H7.13548V13.2424C6.56749 13.3643 6.12027 13.8115 5.99841 14.3795ZM7.76048 13.2424V14.3795H8.89755C8.77568 13.8115 8.32846 13.3643 7.76048 13.2424ZM8.89755 15.0045H7.76048V16.1416C8.32846 16.0197 8.77568 15.5725 8.89755 15.0045ZM7.13548 16.1416V15.0045H5.99841C6.12027 15.5725 6.56749 16.0197 7.13548 16.1416ZM5.34041 14.692C5.34041 13.528 6.284 12.5844 7.44798 12.5844C8.61195 12.5844 9.55554 13.528 9.55554 14.692C9.55554 15.856 8.61195 16.7996 7.44798 16.7996C6.284 16.7996 5.34041 15.856 5.34041 14.692Z" fill="#05A984"/>
<path fill-rule="evenodd" clip-rule="evenodd" d="M10.6613 2.33475C10.7614 2.27351 10.8874 2.27351 10.9875 2.33475L18.0798 6.67395C18.1726 6.73073 18.2292 6.83171 18.2292 6.94051V8.17315C18.2292 8.28479 18.1696 8.38795 18.0729 8.44378C17.9762 8.4996 17.8571 8.4996 17.7604 8.44378L10.8244 4.43935L3.88836 8.44378C3.79167 8.4996 3.67255 8.4996 3.57586 8.44378C3.47917 8.38795 3.41961 8.28479 3.41961 8.17315V6.94051C3.41961 6.83171 3.47621 6.73073 3.56902 6.67395L10.6613 2.33475ZM4.04461 7.11567V7.63189L10.6681 3.80787C10.7648 3.75205 10.884 3.75205 10.9806 3.80787L17.6042 7.63189V7.11567L10.8244 2.96767L4.04461 7.11567Z" fill="#05A984"/>
<path fill-rule="evenodd" clip-rule="evenodd" d="M16.095 4.16382H12.7978V3.53882H16.72V6.06832H16.095V4.16382Z" fill="#05A984"/>
<path fill-rule="evenodd" clip-rule="evenodd" d="M10.6671 3.77916C10.7643 3.72251 10.8845 3.72251 10.9817 3.77916L16.9542 7.259C17.0503 7.31498 17.1093 7.4178 17.1093 7.52901V14.1991C17.1093 14.947 16.5031 15.5533 15.7552 15.5533H12.0614C11.8888 15.5533 11.7489 15.4134 11.7489 15.2408L11.7489 13.0896L11.0379 12.6754L11.0368 12.6747C10.8879 12.588 10.8374 12.397 10.9238 12.2479C11.0103 12.0988 11.2011 12.0479 11.3504 12.1341L11.3515 12.1347L12.6042 12.8579V12.6329L7.5 9.5101L5.01504 11.0304C4.9186 11.0895 4.79779 11.0918 4.69916 11.0365C4.60053 10.9812 4.53945 10.8769 4.53945 10.7639V7.52901C4.53945 7.4178 4.59855 7.31498 4.69463 7.259L10.6671 3.77916ZM12.3739 13.4467L12.7604 13.6698C12.8571 13.7256 12.9762 13.7256 13.0729 13.6698C13.1696 13.614 13.2292 13.5108 13.2292 13.3992V12.4578C13.2292 12.349 13.1726 12.248 13.0798 12.1912L7.66309 8.87719C7.56299 8.81594 7.43701 8.81594 7.33691 8.87719L5.16445 10.2063V7.70861L10.8244 4.41085L16.4843 7.7086V14.1991C16.4843 14.6018 16.1579 14.9283 15.7552 14.9283H12.3739L12.3739 13.4467Z" fill="#05A984"/>
<path fill-rule="evenodd" clip-rule="evenodd" d="M7.50001 9.89068L12.3739 12.7304L12.3739 17.3575C12.3739 18.1054 11.7676 18.7117 11.0197 18.7117H3.98027C3.23239 18.7117 2.62611 18.1054 2.62611 17.3575L2.6261 12.7304L7.50001 9.89068ZM3.2511 13.0896L3.25111 17.3575C3.25111 17.7602 3.57757 18.0867 3.98027 18.0867H11.0197C11.4225 18.0867 11.7489 17.7602 11.7489 17.3575L11.7489 13.0896L7.50001 10.614L3.2511 13.0896Z" fill="#05A984"/>
<path fill-rule="evenodd" clip-rule="evenodd" d="M7.33691 8.87719C7.43701 8.81594 7.56299 8.81594 7.66309 8.87719L13.0798 12.1912C13.1726 12.248 13.2292 12.349 13.2292 12.4578V13.3992C13.2292 13.5108 13.1696 13.614 13.0729 13.6698C12.9762 13.7256 12.8571 13.7256 12.7604 13.6698L7.5 10.6328L2.23958 13.6698C2.1429 13.7257 2.02377 13.7257 1.92708 13.6698C1.8304 13.614 1.77084 13.5109 1.77084 13.3992V12.4578C1.77084 12.349 1.82743 12.248 1.92025 12.1912L7.33691 8.87719ZM2.39584 12.633V12.858L7.34375 10.0013C7.44044 9.94551 7.55956 9.94551 7.65625 10.0013L12.6042 12.8579V12.6329L7.5 9.5101L2.39584 12.633Z" fill="#05A984"/>
</svg>
