<svg width="28" height="28" viewBox="0 0 28 28" fill="none" xmlns="http://www.w3.org/2000/svg">
    <rect width="28" height="28" fill="#F3F3F3"/>
    <path fill-rule="evenodd" clip-rule="evenodd" d="M11.8076 12.9583L13.0104 10.875L14.2132 12.9583H13.2188V17.125H14.2132L13.0104 19.2083L11.8076 17.125H12.8021V12.9583H11.8076Z" fill="#363636"/>
    <path fill-rule="evenodd" clip-rule="evenodd" d="M12.6979 18.125V11.9583H13.3229V18.125H12.6979Z" fill="#363636"/>
    <path fill-rule="evenodd" clip-rule="evenodd" d="M10.9271 16.2445L8.84375 15.0417L10.9271 13.8389V14.8333H15.0938V13.8389L17.1771 15.0417L15.0938 16.2445V15.25H10.9271V16.2445Z" fill="#363636"/>
    <path fill-rule="evenodd" clip-rule="evenodd" d="M16.0937 15.3542H9.92707V14.7292H16.0937V15.3542Z" fill="#363636"/>
    <path fill-rule="evenodd" clip-rule="evenodd" d="M6.8125 10.25C6.8125 9.50211 7.41878 8.89583 8.16667 8.89583H17.75C18.4979 8.89583 19.1042 9.50211 19.1042 10.25V19.8333C19.1042 20.5812 18.4979 21.1875 17.75 21.1875H8.16667C7.41878 21.1875 6.8125 20.5812 6.8125 19.8333V10.25ZM8.16667 9.52083C7.76396 9.52083 7.4375 9.84729 7.4375 10.25V19.8333C7.4375 20.236 7.76396 20.5625 8.16667 20.5625H17.75C18.1527 20.5625 18.4792 20.236 18.4792 19.8333V10.25C18.4792 9.84729 18.1527 9.52083 17.75 9.52083H8.16667Z" fill="#363636"/>
    <path fill-rule="evenodd" clip-rule="evenodd" d="M10.25 7.4375C9.84729 7.4375 9.52083 7.76396 9.52083 8.16667V8.89581L17.75 8.89583C18.4979 8.89583 19.1042 9.50211 19.1042 10.25L19.1042 18.4792H19.8333C20.236 18.4792 20.5625 18.1527 20.5625 17.75V8.16667C20.5625 7.76396 20.236 7.4375 19.8333 7.4375H10.25ZM8.89583 8.16667C8.89583 7.41878 9.50211 6.8125 10.25 6.8125H19.8333C20.5812 6.8125 21.1875 7.41878 21.1875 8.16667V17.75C21.1875 18.4979 20.5812 19.1042 19.8333 19.1042H18.4792L18.4792 10.25C18.4792 9.84729 18.1527 9.52083 17.75 9.52083L8.89583 9.52081V8.16667Z" fill="#363636"/>
</svg>
