<svg width="29" height="28" viewBox="0 0 29 28" fill="none" xmlns="http://www.w3.org/2000/svg">
<rect x="0.341797" width="28" height="28" fill="#F3F3F3"/>
<path d="M21.5899 12.6519V12.6329V9.76582C21.5899 8.47468 20.6659 8 19.7996 8H8.82629C7.95998 8 7.03591 8.4557 7.03591 9.76582V12.6329V12.6519C6.1696 12.7468 5.3418 13.3165 5.3418 14.6266V16.8671C5.3418 17.2468 5.64982 17.5506 6.03484 17.5506H6.26586V19.3165C6.26586 19.6962 6.57388 20 6.95891 20H7.61345C7.99848 20 8.3065 19.6962 8.3065 19.3165V17.5316H20.3771V19.3165C20.3771 19.6962 20.6851 20 21.0701 20H21.7247C22.1097 20 22.4177 19.6962 22.4177 19.3165V17.5316H22.6487C23.0338 17.5316 23.3418 17.2278 23.3418 16.8481V14.6266C23.284 13.3165 22.4562 12.7468 21.5899 12.6519ZM7.69046 9.76582H7.72896C7.72896 8.87342 8.32575 8.68354 8.82629 8.68354H19.7996C20.3001 8.68354 20.8969 8.87342 20.8969 9.76582V12.6329H20.3771V11C20.3771 10.6203 20.0691 10.3165 19.684 10.3165H15.4487C15.0637 10.3165 14.7557 10.6203 14.7557 11V12.6329H13.9471V11C13.9471 10.6203 13.6391 10.3165 13.2541 10.3165H9.0188C8.63378 10.3165 8.32575 10.6203 8.32575 11V12.6329H7.69046V9.76582ZM19.684 11V12.6329H15.4487V11H19.684ZM13.2926 11V12.6329H9.0573V11H13.2926ZM7.5942 19.3165H6.93966V17.5316H7.5942V19.3165ZM21.6862 19.3165H21.0316V17.5316H21.6862V19.3165ZM22.591 16.8671H21.6862H21.0316H7.5942H6.93966H6.01559V15.8608H22.591V16.8671ZM22.591 15.1772H6.01559V14.6266C6.01559 13.4873 6.86265 13.3165 7.34394 13.3165H7.70971H9.03805H13.2733H15.4487H19.684H20.8969H21.2627C21.7632 13.3165 22.591 13.4873 22.591 14.6266V15.1772Z" fill="#363636"/>
</svg>
