<svg width="20" height="21" viewBox="0 0 20 21" fill="none" xmlns="http://www.w3.org/2000/svg">
<path fill-rule="evenodd" clip-rule="evenodd" d="M1.79952 2.44995V18.5479H3.57222L3.57257 18.55H17.4712C17.8739 18.55 18.2004 18.2236 18.2004 17.8209V16.0798C18.2004 15.9249 18.1521 15.7813 18.0697 15.6632C18.1521 15.5451 18.2005 15.4014 18.2005 15.2465V13.5054C18.2005 13.3505 18.1522 13.2068 18.0698 13.0887C18.1521 12.9706 18.2004 12.827 18.2004 12.672V10.9309C18.2004 10.776 18.1521 10.6324 18.0697 10.5143C18.1521 10.3961 18.2005 10.2524 18.2005 10.0975V8.33684C18.2005 8.18027 18.1511 8.03523 18.0671 7.91641C18.1511 7.79762 18.2004 7.6526 18.2004 7.49606V5.75495C18.2004 5.60005 18.1521 5.45642 18.0698 5.33832C18.1521 5.22023 18.2004 5.07661 18.2004 4.9217V3.18059C18.2004 2.77788 17.874 2.45143 17.4713 2.45143H13.2544V2.44995H1.79952ZM12.9431 3.07495H2.42452V17.9229H3.52751C3.95432 17.7735 4.34822 17.52 4.67453 17.1758C5.08356 16.7443 5.36126 16.1966 5.47716 15.6032C5.51715 15.3984 5.53791 15.1883 5.53809 14.9759V14.9762H5.85059L5.53809 14.9759C5.53813 14.4272 5.65323 13.8903 5.86997 13.4012H5.82403L6.2162 12.7762H6.22105C6.32682 12.624 6.44411 12.4794 6.57239 12.344C7.23696 11.6426 8.14202 11.2452 9.08953 11.2452C10.0009 11.2452 10.8814 10.9028 11.5756 10.2814C11.6558 10.2097 11.7336 10.1341 11.8086 10.055C12.3714 9.46092 12.7445 8.70032 12.883 7.87961L12.8859 7.86202C12.9237 7.63203 12.9431 7.39751 12.9431 7.16083L12.9431 3.07495ZM15.8423 5.65082L17.4713 5.65079C17.5288 5.65079 17.5754 5.69742 17.5754 5.75495V7.49606C17.5754 7.55359 17.5288 7.60023 17.4713 7.60023H15.8423V5.65082ZM13.5681 5.65086L15.2173 5.65083V7.60023H13.5486C13.5615 7.45475 13.5681 7.30814 13.5681 7.16083V5.65086ZM17.4713 5.02579C17.5288 5.02579 17.5754 4.97923 17.5754 4.9217V3.18059C17.5754 3.12306 17.5288 3.07643 17.4713 3.07643H13.5681V5.02579H17.4713ZM15.5237 10.2017L14.3864 10.2017V8.23268H17.4713C17.5288 8.23268 17.5755 8.27931 17.5755 8.33684V10.0975C17.5755 10.155 17.5288 10.2018 17.4713 10.2018L15.536 10.2017L15.5298 10.2017L15.5237 10.2017ZM13.7614 8.23268V10.2017L12.5095 10.2017C12.9694 9.62974 13.2903 8.95388 13.4506 8.23268H13.7614ZM17.4713 10.8268H15.8423V12.7762H17.4713C17.5288 12.7762 17.5754 12.7296 17.5754 12.672V10.9309C17.5754 10.8734 17.5288 10.8268 17.4713 10.8268ZM15.2173 12.7762H11.6816V11.0014C11.7563 10.9457 11.8295 10.8875 11.901 10.8268H15.2173V12.7762ZM11.0566 12.7762V11.3917C10.4505 11.7033 9.77868 11.8702 9.08953 11.8702C8.31899 11.8702 7.57636 12.1931 7.02608 12.7739L7.0239 12.7762L11.0566 12.7762ZM6.16309 14.9762C6.16309 14.4168 6.30528 13.8739 6.56733 13.4012H9.12603V15.3506H6.14488C6.15686 15.2268 6.16298 15.102 6.16309 14.9765V14.9762ZM9.75103 15.3506V13.4012H13.2927V15.3506H9.75103ZM13.9177 15.3506V13.4012H17.4713C17.5288 13.4012 17.5755 13.4479 17.5755 13.5054V15.2465C17.5755 15.304 17.5288 15.3506 17.4712 15.3506H13.9177ZM17.4712 15.9756H15.8423V17.925H17.4712C17.5288 17.925 17.5754 17.8784 17.5754 17.8209V16.0798C17.5754 16.0222 17.5288 15.9756 17.4712 15.9756ZM11.6757 15.9756L15.2173 15.9756V17.925H11.6757V15.9756ZM7.46282 15.9757L11.0507 15.9756V17.925H7.46282V15.9757ZM6.03242 15.9757L6.83782 15.9757V17.925H4.78355C4.90427 17.827 5.01941 17.7205 5.12813 17.6058C5.5621 17.148 5.87059 16.585 6.03242 15.9757Z" fill="#05A984"/>
</svg>
