<svg width="20" height="20" viewBox="0 0 20 20" fill="none" xmlns="http://www.w3.org/2000/svg">
<path d="M16.3815 5.39311L16.3643 5.37589V5.35866L13.0917 2.08612L13.0745 2.0689C13.0745 2.0689 13.0573 2.0689 13.0573 2.05167C13.0573 2.05167 13.04 2.05167 13.04 2.03445C12.9884 2 12.9367 2 12.8678 2H4.75533C4.4453 2 4.1525 2.12057 3.94581 2.32725L3.92858 2.34448C3.7219 2.55117 3.58411 2.8612 3.58411 3.17123V17.8288C3.58411 18.156 3.7219 18.4488 3.92858 18.6555C4.13527 18.8622 4.4453 19 4.75533 19H15.2447C15.5719 19 15.8648 18.8622 16.0714 18.6555C16.2781 18.4488 16.4159 18.1388 16.4159 17.8288V5.56535C16.4159 5.49645 16.3987 5.44478 16.3815 5.39311ZM13.1951 3.24012L15.1414 5.18642H13.7118C13.574 5.18642 13.4362 5.13475 13.3501 5.03141C13.2639 4.94529 13.1951 4.8075 13.1951 4.66971V3.24012ZM15.6753 17.8288C15.6753 17.9493 15.6236 18.0527 15.5375 18.1388C15.4514 18.2249 15.348 18.2766 15.2275 18.2766H4.75533C4.63477 18.2766 4.53142 18.2249 4.4453 18.156C4.35918 18.0699 4.32473 17.9666 4.32473 17.846V3.154C4.32473 3.03343 4.37641 2.93009 4.46253 2.84397L4.47975 2.82675C4.56587 2.75785 4.66921 2.70618 4.77256 2.70618H12.4889V4.65248C12.4889 4.99696 12.6267 5.30699 12.8678 5.54813C13.0917 5.77204 13.419 5.90983 13.7634 5.90983H15.6753V17.8288Z" fill="#363636"/>
<path d="M6.25269 12.0298V9.64451H7.03333C7.41402 9.63969 7.72724 9.74932 7.973 9.97339C8.21876 10.1951 8.33923 10.4806 8.33441 10.8299C8.33923 11.1769 8.21756 11.4648 7.96939 11.6937C7.72122 11.9226 7.4092 12.0346 7.03333 12.0298H6.25269ZM6.74059 11.5889H7.02972C7.27066 11.5889 7.46462 11.5202 7.61159 11.3829C7.75857 11.2432 7.83205 11.0588 7.83205 10.8299C7.83205 10.5986 7.75977 10.4167 7.61521 10.2842C7.47064 10.1517 7.27548 10.0854 7.02972 10.0854H6.74059V11.5889Z" fill="#33333D"/>
<path d="M8.61064 10.8372C8.60582 10.4974 8.7287 10.2047 8.97928 9.95894C9.23227 9.71318 9.53103 9.59391 9.87558 9.60114C10.2201 9.59391 10.5189 9.71318 10.7719 9.95894C11.0273 10.2047 11.1526 10.4974 11.1477 10.8372C11.1526 11.1769 11.0273 11.4696 10.7719 11.7154C10.5189 11.9612 10.2201 12.0804 9.87558 12.0732C9.53103 12.0804 9.23227 11.9612 8.97928 11.7154C8.7287 11.4696 8.60582 11.1769 8.61064 10.8372ZM10.6454 10.8372C10.6454 10.6107 10.5719 10.424 10.4249 10.277C10.2804 10.1276 10.0984 10.0529 9.87919 10.0529C9.65753 10.0529 9.47441 10.1264 9.32985 10.2734C9.18528 10.4203 9.113 10.6083 9.113 10.8372C9.113 11.0661 9.18528 11.254 9.32985 11.401C9.47441 11.5479 9.65753 11.6214 9.87919 11.6214C10.0984 11.6214 10.2804 11.5479 10.4249 11.401C10.5719 11.254 10.6454 11.0661 10.6454 10.8372Z" fill="#33333D"/>
<path d="M11.4236 10.8372C11.4188 10.495 11.5428 10.2023 11.7958 9.95894C12.0488 9.71318 12.3488 9.59391 12.6957 9.60114C12.9222 9.60114 13.127 9.65415 13.3101 9.76016C13.4957 9.86377 13.6414 10.0083 13.7475 10.1939L13.3788 10.4541C13.2077 10.1866 12.9801 10.0529 12.6957 10.0529C12.4741 10.0529 12.2898 10.1276 12.1428 10.277C11.9982 10.4264 11.9259 10.6143 11.9259 10.8408C11.9259 11.0673 11.9982 11.254 12.1428 11.401C12.2898 11.5479 12.4741 11.6214 12.6957 11.6214C12.9801 11.6214 13.2077 11.4877 13.3788 11.2203L13.7475 11.4805C13.6438 11.666 13.4993 11.8118 13.3138 11.9178C13.1282 12.0214 12.921 12.0732 12.6921 12.0732C12.3428 12.0804 12.0416 11.9624 11.7886 11.719C11.538 11.4733 11.4163 11.1793 11.4236 10.8372Z" fill="#33333D"/>
</svg>
