<svg width="21" height="21" viewBox="0 0 21 21" fill="none" xmlns="http://www.w3.org/2000/svg">
<path fill-rule="evenodd" clip-rule="evenodd" d="M8.46241 3.40822C8.35961 3.44756 8.27499 3.50542 8.22212 3.58186C8.16667 3.66202 8.12633 3.74455 8.09733 3.82075H12.7477C13.3805 3.82075 13.8935 4.33376 13.8935 4.96658V6.01156H16.456V6.63656H13.8935V7.67822H16.456V8.30322H13.8935V9.42546H16.456V10.0505H13.8935V11.0921H16.456V11.7171H13.8935V12.8394H16.456V13.4644H13.8935V14.506H16.456V15.131H13.8935V17.1453H17.3359C17.6257 17.1453 17.7822 17.0511 17.8827 16.9352C17.9629 16.8426 18.0185 16.6929 18.0185 16.3789L18.0185 4.12338C18.0185 4.05767 17.9831 3.81015 17.8252 3.58186C17.7723 3.50542 17.6877 3.44756 17.5849 3.40822C17.4812 3.36851 17.3823 3.35693 17.3359 3.35693H8.71146C8.66501 3.35693 8.56618 3.36851 8.46241 3.40822ZM7.44451 3.82081C7.4868 3.64385 7.56712 3.43013 7.70811 3.22631C7.85426 3.01503 8.05989 2.89306 8.23904 2.8245C8.41722 2.75632 8.59205 2.73193 8.71146 2.73193H17.3359C17.4553 2.73193 17.6301 2.75632 17.8083 2.8245C17.9874 2.89306 18.1931 3.01503 18.3392 3.2263C18.5794 3.57346 18.6435 3.94932 18.6435 4.12338L18.6435 16.3789C18.6435 16.7505 18.581 17.0838 18.355 17.3445C18.1236 17.6115 17.7874 17.7703 17.3359 17.7703H13.8302C13.826 17.8012 13.821 17.8328 13.8152 17.8647C13.7879 18.0135 13.7347 18.2113 13.6193 18.3663C13.5221 18.4968 13.3929 18.6251 13.2086 18.7182C13.0253 18.8109 12.8068 18.8592 12.5442 18.8592H3.91979C3.43359 18.8592 3.11805 18.6383 2.92199 18.3726C2.61013 17.9499 2.61103 17.5573 2.61201 17.128C2.61203 17.1186 2.61205 17.1092 2.61207 17.0998C2.61212 17.0729 2.61217 17.0458 2.61217 17.0182V6.56707C2.61217 6.47805 2.65014 6.39325 2.71654 6.33396L5.44235 3.9002C5.49962 3.84907 5.57371 3.82081 5.65048 3.82081H7.44451ZM5.33799 4.83126L5.338 5.48811C5.338 5.48811 5.338 5.48812 5.338 5.48811C5.338 5.55383 5.30262 5.80135 5.14471 6.02963C5.09184 6.10607 5.00723 6.16393 4.90442 6.20327C4.80066 6.24298 4.70182 6.25456 4.65538 6.25456L3.74388 6.25457L5.33799 4.83126ZM3.23717 6.87957L4.65538 6.87956C4.77478 6.87956 4.94961 6.85518 5.1278 6.78699C5.30695 6.71844 5.51258 6.59647 5.65873 6.38519C5.89886 6.03804 5.963 5.66217 5.963 5.48811L5.96298 4.44581H12.5442C12.5907 4.44581 12.6895 4.45739 12.7933 4.4971C12.8961 4.53644 12.9807 4.5943 13.0336 4.67074C13.1915 4.89902 13.2268 5.14655 13.2268 5.21226L13.2268 17.4677C13.2268 17.5288 13.2211 17.6393 13.2004 17.752C13.1782 17.873 13.146 17.9553 13.118 17.9931C13.0638 18.0658 13.0047 18.121 12.9266 18.1605C12.8474 18.2005 12.7294 18.2342 12.5442 18.2342H3.91979C3.65566 18.2342 3.51791 18.1275 3.42491 18.0015C3.24293 17.7548 3.23619 17.5554 3.23706 17.101C3.23712 17.0742 3.23717 17.0465 3.23717 17.0182V6.87957ZM3.17345 18.187L3.42491 18.0015L3.17345 18.187ZM11.6643 8.24295H4.99768V7.61795H11.6643V8.24295ZM11.6643 9.90962H4.99768V9.28462H11.6643V9.90962ZM11.6643 11.3811H4.99768V10.7561H11.6643V11.3811ZM11.6643 13.0477H4.99768V12.4227H11.6643V13.0477ZM11.6643 14.5192H4.99768V13.8942H11.6643V14.5192ZM11.6643 16.1859H4.99768V15.5609H11.6643V16.1859Z" fill="#05A984"/>
</svg>
