<svg width="21" height="21" viewBox="0 0 21 21" fill="none" xmlns="http://www.w3.org/2000/svg">
<path fill-rule="evenodd" clip-rule="evenodd" d="M15.6812 6.38061L11.1734 6.3806V5.7556L15.6812 5.75561V6.38061Z" fill="#05A984"/>
<path fill-rule="evenodd" clip-rule="evenodd" d="M14.8218 12.6024H10.1236V11.9774H14.8218C16.7203 11.9774 18.2593 13.5164 18.2593 15.4149V17.1336H14.5188V16.5086H17.6343V15.4149C17.6343 13.8616 16.3751 12.6024 14.8218 12.6024Z" fill="#05A984"/>
<path fill-rule="evenodd" clip-rule="evenodd" d="M11.0397 4.36019V2.47217H11.6647V4.36019H11.0397Z" fill="#05A984"/>
<path fill-rule="evenodd" clip-rule="evenodd" d="M12.15 4.36019V2.47217H12.775V4.36019H12.15Z" fill="#05A984"/>
<path fill-rule="evenodd" clip-rule="evenodd" d="M13.2222 12.2898V10.2374H13.8472V12.2898H13.2222ZM10.0923 12.2898V11.1925H10.7173V12.2898H10.0923Z" fill="#05A984"/>
<path fill-rule="evenodd" clip-rule="evenodd" d="M15.3687 16.8211V12.2899H15.9937V16.8211H15.3687Z" fill="#05A984"/>
<path d="M15.0394 14.0835C15.0394 14.2399 14.9127 14.3667 14.7562 14.3667C14.5998 14.3667 14.473 14.2399 14.473 14.0835C14.473 13.9271 14.5998 13.8003 14.7562 13.8003C14.9127 13.8003 15.0394 13.9271 15.0394 14.0835Z" fill="#05A984"/>
<path fill-rule="evenodd" clip-rule="evenodd" d="M5.39442 7.14965H11.4781L11.4847 7.4554C11.4908 7.73645 11.4727 8.03105 11.4555 8.31186L11.4551 8.31879C11.4396 8.57087 11.4248 8.81283 11.4248 9.04533C11.4248 9.97999 11.0346 10.8188 10.6384 11.4481C10.1215 12.269 9.42699 12.8636 8.45024 12.8636C7.44892 12.8636 6.79318 12.1252 6.29825 11.3391C5.91631 10.7325 5.47563 9.99388 5.47563 9.04533C5.47563 8.78937 5.45404 8.53169 5.43163 8.26641L5.43091 8.25787C5.40862 7.99412 5.38538 7.71917 5.38954 7.45719L5.39442 7.14965ZM6.02162 7.77465C6.02911 7.91334 6.04134 8.05913 6.05441 8.21379L6.0549 8.21963C6.07682 8.47906 6.10063 8.7608 6.10063 9.04533C6.10063 9.79676 6.44488 10.3989 6.82716 11.0061C7.30883 11.7711 7.80195 12.2386 8.45024 12.2386C9.12311 12.2386 9.64975 11.8453 10.1095 11.1151C10.4776 10.5305 10.7998 9.81065 10.7998 9.04533C10.7998 8.79198 10.8158 8.53231 10.8309 8.28531L10.8312 8.28052C10.842 8.10529 10.8522 7.93669 10.8574 7.77465H6.02162Z" fill="#05A984"/>
<path fill-rule="evenodd" clip-rule="evenodd" d="M8.45025 4.79918C7.00085 4.79918 5.87764 5.86122 5.87764 7.11041C5.87764 7.12352 5.87776 7.1366 5.878 7.14965H11.0225C11.0227 7.1366 11.0229 7.12352 11.0229 7.11041C11.0229 5.86122 9.89966 4.79918 8.45025 4.79918ZM5.25264 7.11041C5.25264 5.46151 6.71285 4.17418 8.45025 4.17418C10.1877 4.17418 11.6479 5.46151 11.6479 7.11041C11.6479 7.245 11.638 7.37763 11.6188 7.5077L11.5795 7.77465H5.32101L5.28168 7.5077C5.26252 7.37763 5.25264 7.245 5.25264 7.11041Z" fill="#05A984"/>
<path fill-rule="evenodd" clip-rule="evenodd" d="M10.6386 5.76283H14.899L14.9056 6.06858C14.9117 6.35131 14.8934 6.68979 14.876 6.97448C14.8605 7.22657 14.8458 7.46854 14.8458 7.70104C14.8458 8.6357 14.4555 9.47455 14.0593 10.1038C13.5424 10.9247 12.8479 11.5193 11.8711 11.5193C11.313 11.5193 10.8575 11.2873 10.481 10.9455L10.3076 10.788L10.41 10.5774C10.6379 10.1088 10.7998 9.58785 10.7998 9.04533C10.7998 8.79198 10.8158 8.53231 10.8309 8.28531L10.8312 8.28052C10.8489 7.99213 10.8653 7.72161 10.8599 7.46885L10.853 7.1496L11.0225 7.14965C11.0227 7.1366 11.0229 7.12352 11.0229 7.11041C11.0229 6.79937 10.9548 6.46587 10.8368 6.20349L10.6386 5.76283ZM11.4827 7.7746C11.4774 7.95461 11.4663 8.13596 11.4555 8.31186L11.4551 8.31879C11.4396 8.57087 11.4248 8.81283 11.4248 9.04533C11.4248 9.61766 11.2785 10.1531 11.0756 10.6249C11.3172 10.7994 11.5765 10.8943 11.8711 10.8943C12.544 10.8943 13.0706 10.501 13.5304 9.77078C13.8985 9.18618 14.2208 8.46636 14.2208 7.70104C14.2208 7.4477 14.2367 7.18803 14.2518 6.94104L14.2521 6.93622C14.2631 6.75701 14.2737 6.56701 14.2787 6.38783H11.5578C11.6171 6.62466 11.6479 6.87315 11.6479 7.11041C11.6479 7.245 11.638 7.37763 11.6188 7.5077L11.5795 7.77465L11.4827 7.7746Z" fill="#05A984"/>
<path fill-rule="evenodd" clip-rule="evenodd" d="M9.01365 4.42229C9.54512 3.46746 10.6339 2.82994 11.8711 2.82994C13.6033 2.82994 15.0688 4.09292 15.0688 5.72226C15.0688 5.85511 15.0588 5.98603 15.0396 6.11441L14.9997 6.3806H10.9211L10.8376 6.19808C10.5531 5.57596 9.9578 5.07949 9.20512 4.87594L8.81923 4.77158L9.01365 4.42229ZM9.7736 4.4101C10.4375 4.6833 10.9852 5.15769 11.3142 5.7556H14.4435C14.4437 5.74451 14.4438 5.73339 14.4438 5.72226C14.4438 4.502 13.3257 3.45494 11.8711 3.45494C10.9969 3.45494 10.2357 3.83807 9.7736 4.4101Z" fill="#05A984"/>
<path fill-rule="evenodd" clip-rule="evenodd" d="M12.2074 7.77465H4.65533V7.14965H12.2074V7.77465Z" fill="#05A984"/>
<path fill-rule="evenodd" clip-rule="evenodd" d="M7.56592 5.75423V3.86621H8.19092V5.75423H7.56592Z" fill="#05A984"/>
<path fill-rule="evenodd" clip-rule="evenodd" d="M8.67628 5.75423V3.86621H9.30128V5.75423H8.67628Z" fill="#05A984"/>
<path fill-rule="evenodd" clip-rule="evenodd" d="M9.45969 11.9774H14.3505V13.5138C14.3505 14.0675 14.0183 14.5429 13.5435 14.7528L13.3603 14.8338L13.2102 14.7011C12.714 14.2624 12.0624 13.9964 11.348 13.9964H9.52065L9.47764 13.7346C9.46581 13.6625 9.45969 13.5888 9.45969 13.5138V11.9774ZM10.0847 12.6024V13.3714H11.348C12.1383 13.3714 12.8669 13.6384 13.4475 14.0868C13.6171 13.9531 13.7255 13.7459 13.7255 13.5138V12.6024H10.0847Z" fill="#05A984"/>
<path fill-rule="evenodd" clip-rule="evenodd" d="M2.07721 16.8089C2.07721 14.9104 3.61623 13.3714 5.51471 13.3714H11.348C13.2465 13.3714 14.7855 14.9104 14.7855 16.8089V18.5277H2.07721V16.8089ZM5.51471 13.9964C3.96141 13.9964 2.70221 15.2556 2.70221 16.8089V17.9027H14.1605V16.8089C14.1605 15.2556 12.9013 13.9964 11.348 13.9964H5.51471Z" fill="#05A984"/>
<path fill-rule="evenodd" clip-rule="evenodd" d="M9.7485 13.6839V11.6388H10.3735V13.6839H9.7485ZM6.61853 13.6839V11.6389H7.24353V13.6839H6.61853Z" fill="#05A984"/>
<path fill-rule="evenodd" clip-rule="evenodd" d="M11.8949 18.2151V13.6839H12.5199V18.2151H11.8949ZM4.34283 18.2152V13.684H4.96783V18.2152H4.34283Z" fill="#05A984"/>
<path fill-rule="evenodd" clip-rule="evenodd" d="M5.98595 13.3714H10.8768V14.9079C10.8768 15.6558 10.2705 16.262 9.52264 16.262H7.34012C6.59223 16.262 5.98595 15.6558 5.98595 14.9079V13.3714ZM6.61095 13.9964V14.9079C6.61095 15.3106 6.93741 15.637 7.34012 15.637H9.52264C9.92535 15.637 10.2518 15.3106 10.2518 14.9079V13.9964H6.61095Z" fill="#05A984"/>
<path d="M11.5657 15.4775C11.5657 15.6339 11.4389 15.7607 11.2825 15.7607C11.1261 15.7607 10.9993 15.6339 10.9993 15.4775C10.9993 15.3211 11.1261 15.1943 11.2825 15.1943C11.4389 15.1943 11.5657 15.3211 11.5657 15.4775Z" fill="#05A984"/>
<path d="M5.86347 15.4775C5.86347 15.6339 5.73668 15.7607 5.58027 15.7607C5.42386 15.7607 5.29707 15.6339 5.29707 15.4775C5.29707 15.3211 5.42386 15.1943 5.58027 15.1943C5.73668 15.1943 5.86347 15.3211 5.86347 15.4775Z" fill="#05A984"/>
</svg>
