<svg width="21" height="20" viewBox="0 0 21 20" fill="none" xmlns="http://www.w3.org/2000/svg">
<path fill-rule="evenodd" clip-rule="evenodd" d="M10.4532 2.08325L17.7969 3.9125L17.8308 4.1144C18.0401 5.35804 18.1675 7.18108 17.7695 9.16357C17.1541 12.2286 15.2845 15.6558 10.5836 17.8948L10.4554 17.9558L10.325 17.8994C5.67132 15.8843 3.70244 12.4119 3.06901 9.16184C2.68936 7.21389 2.78895 5.34773 3.06909 3.92059L3.10843 3.72019L10.4532 2.08325ZM3.64494 4.24095C3.41875 5.50937 3.34487 7.11252 3.63592 8.78956H10.1367V2.79412L3.64494 4.24095ZM10.7617 2.8042V8.78956H17.2044C17.5065 7.10154 17.4182 5.54578 17.2468 4.41958L10.7617 2.8042ZM17.0754 9.41456H10.7617V17.1095C14.7518 15.0609 16.4434 12.1114 17.0754 9.41456ZM10.1367 17.1285V9.41456H3.76102C4.41182 12.2776 6.18341 15.2652 10.1367 17.1285Z" fill="#05A984"/>
</svg>
