<svg width="139" height="42" viewBox="0 0 139 42" fill="none" xmlns="http://www.w3.org/2000/svg">
    <path fill-rule="evenodd" clip-rule="evenodd" d="M37.8445 4H30.636V29.1671L19.8233 14V23.523L30.636 38.841H37.8445V4ZM19.8233 14L12.6148 17.8162V38.841H19.8233V14ZM0 19.6184L1.80212 22.0212L24.9293 9.10601L28.8339 11.2085V7.9046L24.9293 5.50177L0 19.6184ZM39.6466 13.311V17.2156L78.3922 38.841H85L39.6466 13.311ZM41.6466 29.8304C40.542 29.8304 39.6466 30.7258 39.6466 31.8304V36.841C39.6466 37.9456 40.542 38.841 41.6466 38.841H48.4593C49.5639 38.841 50.4593 37.9456 50.4593 36.841V31.8304C50.4593 30.7258 49.5639 29.8304 48.4593 29.8304H41.6466ZM47.4559 32.2332H42.6502V36.4382H47.4559V32.2332ZM51.6608 31.6325L54.0636 30.1308L57.0672 36.1378L59.7703 30.1308L62.1732 31.6325L58.8693 38.841H55.265L51.6608 31.6325Z" fill="#33333D"/>
    <path d="M58.6901 20V8.2916H61.085V12.7798H66.2651V8.2916H68.66V20H66.2651V14.9441H61.085V20H58.6901ZM69.7757 14.1458C69.7521 12.4782 70.3552 11.0413 71.5852 9.83498C72.827 8.62866 74.2935 8.04324 75.9847 8.07872C77.6759 8.04324 79.1424 8.62866 80.3842 9.83498C81.6379 11.0413 82.2528 12.4782 82.2292 14.1458C82.2528 15.8134 81.6379 17.2503 80.3842 18.4566C79.1424 19.6629 77.6759 20.2484 75.9847 20.2129C74.2935 20.2484 72.827 19.6629 71.5852 18.4566C70.3552 17.2503 69.7521 15.8134 69.7757 14.1458ZM79.7633 14.1458C79.7633 13.0341 79.4026 12.1175 78.6812 11.3961C77.9716 10.6628 77.0787 10.2962 76.0024 10.2962C74.9144 10.2962 74.0156 10.6569 73.306 11.3784C72.5964 12.0998 72.2416 13.0223 72.2416 14.1458C72.2416 15.2693 72.5964 16.1918 73.306 16.9132C74.0156 17.6347 74.9144 17.9954 76.0024 17.9954C77.0787 17.9954 77.9716 17.6347 78.6812 16.9132C79.4026 16.1918 79.7633 15.2693 79.7633 14.1458ZM92.4354 16.5584C92.4354 17.5637 92.0747 18.3916 91.3532 19.042C90.6318 19.6807 89.7093 20 88.5858 20H83.3702V8.2916H87.5214C88.6094 8.2916 89.4964 8.59909 90.1824 9.21408C90.8802 9.81724 91.229 10.5978 91.229 11.5558C91.229 12.4191 90.9393 13.1228 90.3598 13.6668C91.7435 14.1754 92.4354 15.1392 92.4354 16.5584ZM87.3262 10.3494H85.6764V13.0282H87.3262C87.8111 13.0282 88.1837 12.9099 88.4439 12.6734C88.7159 12.4368 88.8519 12.1057 88.8519 11.6799C88.8519 11.266 88.7159 10.9408 88.4439 10.7042C88.1837 10.4677 87.8111 10.3494 87.3262 10.3494ZM90.0759 16.4697C90.0759 16.0203 89.9281 15.6655 89.6324 15.4053C89.3368 15.1333 88.9288 14.9973 88.4084 14.9973H85.6764V17.9422H88.4084C88.9288 17.9422 89.3368 17.8121 89.6324 17.5519C89.9281 17.2917 90.0759 16.931 90.0759 16.4697ZM100.885 20L100.229 18.4744H95.4392L94.7829 20H92.2106L97.4439 8.07872H98.2422L103.458 20H100.885ZM99.3953 16.5052L97.8341 12.5492L96.273 16.5052H99.3953ZM113.128 22.5013V20H104.17V8.2916H106.565V17.8357H111.461V8.2916H113.856V17.8357H115.417V22.5013H113.128ZM125.553 8.07872H126.351V20H123.956V12.7443L117.091 20.2129H116.31V8.2916H118.705V15.4763L125.553 8.07872ZM132.521 8.2916H136.655V20H134.26V16.1149H132.734L130.002 20H127.43L130.428 15.7069C129.683 15.3876 129.092 14.9204 128.654 14.3055C128.228 13.6786 128.015 12.975 128.015 12.1944C128.015 11.0354 128.429 10.0952 129.257 9.37374C130.097 8.65231 131.185 8.2916 132.521 8.2916ZM134.26 14.0039V10.4027H132.45C131.859 10.4027 131.38 10.5682 131.013 10.8994C130.647 11.2305 130.463 11.6681 130.463 12.2121C130.463 12.7562 130.647 13.1938 131.013 13.5249C131.38 13.8442 131.859 14.0039 132.45 14.0039H134.26Z" fill="#33333D"/>
    <path d="M88.154 28.9211C88.1426 28.3304 88.3528 27.8192 88.7845 27.3875C89.2161 26.9558 89.7302 26.7457 90.3266 26.757C90.6844 26.757 91.011 26.8366 91.3064 26.9956C91.6017 27.1546 91.846 27.3762 92.0391 27.6602L91.5705 28.035C91.2411 27.5863 90.8293 27.362 90.3351 27.362C89.9091 27.362 89.5513 27.5153 89.2616 27.822C88.9719 28.1231 88.8271 28.4894 88.8271 28.9211C88.8271 29.3585 88.9719 29.7305 89.2616 30.0372C89.5513 30.3383 89.9091 30.4888 90.3351 30.4888C90.8236 30.4888 91.2325 30.2673 91.562 29.8242L92.0306 30.1906C91.6216 30.7927 91.0536 31.0937 90.3266 31.0937C89.7245 31.0937 89.2105 30.8836 88.7845 30.4632C88.3641 30.0372 88.154 29.5232 88.154 28.9211ZM93.5623 31V27.4386H92.165V26.8508H95.6071V27.4386H94.2098V31H93.5623ZM99.7335 27.379C100.125 27.7936 100.321 28.3077 100.321 28.9211C100.321 29.5346 100.123 30.0514 99.7249 30.4718C99.333 30.8864 98.8474 31.0937 98.268 31.0937C97.6148 31.0937 97.1065 30.8637 96.7429 30.4036V32.5336H96.0869V26.8508H96.7003V27.5153C96.8594 27.2768 97.0781 27.0922 97.3564 26.9615C97.6347 26.8252 97.9386 26.757 98.268 26.757C98.8587 26.757 99.3472 26.9644 99.7335 27.379ZM99.2223 30.0458C99.5063 29.7504 99.6483 29.3784 99.6483 28.9296C99.6483 28.4809 99.5063 28.1089 99.2223 27.8135C98.9439 27.5125 98.5946 27.362 98.1743 27.362C97.7767 27.362 97.4359 27.4983 97.1519 27.7709C96.8736 28.0436 96.7344 28.427 96.7344 28.9211C96.7344 29.4266 96.8707 29.8157 97.1434 30.0884C97.4217 30.3553 97.7653 30.4888 98.1743 30.4888C98.5946 30.4888 98.9439 30.3411 99.2223 30.0458ZM100.746 28.9211C100.735 28.3304 100.945 27.8192 101.376 27.3875C101.814 26.9558 102.328 26.7457 102.919 26.757C103.515 26.7457 104.029 26.9558 104.461 27.3875C104.892 27.8192 105.103 28.3304 105.091 28.9211C105.103 29.5062 104.89 30.0174 104.452 30.4547C104.015 30.8864 103.501 31.0966 102.91 31.0852C102.319 31.0966 101.808 30.8864 101.376 30.4547C100.945 30.0174 100.735 29.5062 100.746 28.9211ZM104.418 28.9296C104.418 28.4866 104.273 28.1146 103.984 27.8135C103.7 27.5125 103.345 27.362 102.919 27.362C102.493 27.362 102.135 27.5125 101.845 27.8135C101.561 28.1089 101.419 28.4809 101.419 28.9296C101.419 29.367 101.561 29.7362 101.845 30.0372C102.135 30.3326 102.49 30.4803 102.91 30.4803C103.33 30.4803 103.685 30.3298 103.975 30.0287C104.27 29.7277 104.418 29.3613 104.418 28.9296ZM109.005 26.757H109.243V31H108.587V28.0691L106.057 31.0937H105.818V26.8508H106.474V29.7902L109.005 26.757ZM111.103 31V27.4386H109.706V26.8508H113.148V27.4386H111.751V31H111.103ZM117.283 29.1256H114.003C114.043 29.5346 114.205 29.864 114.489 30.1139C114.773 30.3638 115.119 30.4888 115.528 30.4888C115.999 30.4888 116.423 30.3014 116.797 29.9265L117.181 30.3695C116.715 30.8523 116.161 31.0937 115.519 31.0937C114.9 31.0937 114.378 30.8864 113.952 30.4718C113.531 30.0514 113.321 29.5374 113.321 28.9296C113.321 28.3276 113.526 27.8164 113.935 27.396C114.349 26.97 114.852 26.757 115.443 26.757C115.982 26.757 116.431 26.9331 116.789 27.2853C117.152 27.6374 117.334 28.0862 117.334 28.6314C117.334 28.7905 117.317 28.9552 117.283 29.1256ZM114.028 28.5462H116.661C116.655 28.1827 116.536 27.893 116.303 27.6772C116.07 27.4614 115.778 27.3534 115.426 27.3534C115.079 27.3534 114.778 27.4642 114.523 27.6857C114.267 27.9016 114.102 28.1884 114.028 28.5462ZM118.385 26.8508H121.196V31H120.54V27.4386H118.998L118.981 27.9498C118.941 29.0688 118.828 29.8583 118.64 30.3184C118.453 30.7785 118.12 31.017 117.643 31.0341C117.558 31.0341 117.484 31.0227 117.422 31V30.4462C117.513 30.4576 117.57 30.4632 117.592 30.4632C117.854 30.4632 118.041 30.2616 118.155 29.8583C118.274 29.455 118.342 28.8132 118.359 27.9328L118.385 26.8508ZM122.219 31V26.8508H122.875V28.2821H123.864C124.335 28.2821 124.71 28.4071 124.988 28.657C125.272 28.9012 125.414 29.2278 125.414 29.6368C125.414 30.0458 125.272 30.3752 124.988 30.6251C124.71 30.875 124.335 31 123.864 31H122.219ZM122.875 30.4206H123.83C124.114 30.4206 124.335 30.3525 124.494 30.2162C124.659 30.0742 124.741 29.8839 124.741 29.6453C124.741 29.4068 124.659 29.2165 124.494 29.0745C124.329 28.9325 124.105 28.8615 123.821 28.8615H122.875V30.4206ZM126.137 31V26.8508H126.793V28.5036H128.829V26.8508H129.485V31H128.829V29.083H126.793V31H126.137ZM133.605 28.444V31H132.991V30.4632C132.673 30.8836 132.207 31.0937 131.594 31.0937C131.162 31.0937 130.813 30.9886 130.546 30.7785C130.279 30.5626 130.145 30.2786 130.145 29.9265C130.145 29.5743 130.282 29.2932 130.554 29.083C130.827 28.8728 131.188 28.7678 131.636 28.7678H132.948V28.4099C132.948 28.0748 132.858 27.8164 132.676 27.6346C132.5 27.4528 132.256 27.362 131.943 27.362C131.477 27.362 131.074 27.5835 130.733 28.0265L130.299 27.6687C130.668 27.0609 131.23 26.757 131.986 26.757C132.486 26.757 132.88 26.9047 133.17 27.2001C133.46 27.4898 133.605 27.9044 133.605 28.444ZM132.948 29.4068V29.3045H131.713C131.117 29.3045 130.818 29.5005 130.818 29.8924C130.818 30.0969 130.898 30.2588 131.057 30.378C131.222 30.4916 131.429 30.5484 131.679 30.5484C132.025 30.5484 132.324 30.4377 132.574 30.2162C132.824 29.9946 132.948 29.7248 132.948 29.4068ZM135.942 26.8508H137.595V31H136.939V29.4834H136.155L135.013 31H134.246L135.456 29.3982C135.149 29.3074 134.908 29.1568 134.732 28.9467C134.561 28.7308 134.476 28.4752 134.476 28.1799C134.476 27.7766 134.61 27.4557 134.877 27.2171C135.144 26.9729 135.499 26.8508 135.942 26.8508ZM136.939 28.9041V27.4386H135.984C135.723 27.4386 135.519 27.504 135.371 27.6346C135.223 27.7652 135.149 27.9442 135.149 28.1714C135.149 28.3929 135.223 28.5718 135.371 28.7081C135.524 28.8388 135.732 28.9041 135.993 28.9041H136.939ZM103.347 39V34.8508H104.003V39H103.347ZM104.889 36.7337L106.84 39H106.014L104.088 36.7507L105.835 34.8508H106.653L104.889 36.7337ZM106.883 36.9211C106.872 36.3304 107.082 35.8192 107.513 35.3875C107.951 34.9558 108.465 34.7457 109.056 34.757C109.652 34.7457 110.166 34.9558 110.598 35.3875C111.029 35.8192 111.24 36.3304 111.228 36.9211C111.24 37.5062 111.027 38.0174 110.589 38.4547C110.152 38.8864 109.638 39.0966 109.047 39.0852C108.456 39.0966 107.945 38.8864 107.513 38.4547C107.082 38.0174 106.872 37.5062 106.883 36.9211ZM110.555 36.9296C110.555 36.4866 110.41 36.1146 110.121 35.8135C109.837 35.5125 109.482 35.362 109.056 35.362C108.63 35.362 108.272 35.5125 107.982 35.8135C107.698 36.1089 107.556 36.4809 107.556 36.9296C107.556 37.367 107.698 37.7362 107.982 38.0372C108.272 38.3326 108.627 38.4803 109.047 38.4803C109.467 38.4803 109.822 38.3298 110.112 38.0287C110.407 37.7277 110.555 37.3613 110.555 36.9296ZM111.955 39V34.757H112.194L114.162 37.0915L116.122 34.757H116.352V39H115.696V36.1969L114.281 37.8839H114.026L112.611 36.1969V39H111.955ZM117.37 39V34.8508H120.685V39H120.02V35.4386H118.026V39H117.37ZM124.805 36.444V39H124.192V38.4632C123.873 38.8836 123.408 39.0937 122.794 39.0937C122.363 39.0937 122.013 38.9886 121.746 38.7785C121.479 38.5626 121.346 38.2786 121.346 37.9265C121.346 37.5743 121.482 37.2932 121.755 37.083C122.027 36.8728 122.388 36.7678 122.837 36.7678H124.149V36.4099C124.149 36.0748 124.058 35.8164 123.876 35.6346C123.7 35.4528 123.456 35.362 123.144 35.362C122.678 35.362 122.275 35.5835 121.934 36.0265L121.499 35.6687C121.868 35.0609 122.431 34.757 123.186 34.757C123.686 34.757 124.081 34.9047 124.37 35.2001C124.66 35.4898 124.805 35.9044 124.805 36.444ZM124.149 37.4068V37.3045H122.914C122.317 37.3045 122.019 37.5005 122.019 37.8924C122.019 38.0969 122.098 38.2588 122.257 38.378C122.422 38.4916 122.63 38.5484 122.879 38.5484C123.226 38.5484 123.524 38.4377 123.774 38.2162C124.024 37.9946 124.149 37.7248 124.149 37.4068ZM125.77 39V34.8508H126.426V36.5036H128.463V34.8508H129.119V39H128.463V37.083H126.426V39H125.77ZM133.315 34.757H133.554V39H132.898V36.0691L130.367 39.0937H130.129V34.8508H130.785V37.7902L133.315 34.757ZM135.942 34.8508H137.595V39H136.939V37.4834H136.155L135.013 39H134.246L135.456 37.3982C135.149 37.3074 134.908 37.1568 134.732 36.9467C134.561 36.7308 134.476 36.4752 134.476 36.1799C134.476 35.7766 134.61 35.4557 134.877 35.2171C135.144 34.9729 135.499 34.8508 135.942 34.8508ZM136.939 36.9041V35.4386H135.984C135.723 35.4386 135.519 35.504 135.371 35.6346C135.223 35.7652 135.149 35.9442 135.149 36.1714C135.149 36.3929 135.223 36.5718 135.371 36.7081C135.524 36.8388 135.732 36.9041 135.993 36.9041H136.939Z" fill="#33333D"/>
</svg>
