<svg width="21" height="21" viewBox="0 0 21 21" fill="none" xmlns="http://www.w3.org/2000/svg">
<path d="M12.3012 5.66899C12.3012 5.84158 12.1613 5.98149 11.9887 5.98149C11.8161 5.98149 11.6762 5.84158 11.6762 5.66899C11.6762 5.4964 11.8161 5.35649 11.9887 5.35649C12.1613 5.35649 12.3012 5.4964 12.3012 5.66899Z" fill="#05A984"/>
<path d="M11.304 6.29399C11.304 6.46658 11.1641 6.60649 10.9915 6.60649C10.8189 6.60649 10.679 6.46658 10.679 6.29399C10.679 6.1214 10.8189 5.98149 10.9915 5.98149C11.1641 5.98149 11.304 6.1214 11.304 6.29399Z" fill="#05A984"/>
<path d="M13.429 6.29399C13.429 6.46658 13.2891 6.60649 13.1165 6.60649C12.9439 6.60649 12.804 6.46658 12.804 6.29399C12.804 6.1214 12.9439 5.98149 13.1165 5.98149C13.2891 5.98149 13.429 6.1214 13.429 6.29399Z" fill="#05A984"/>
<path fill-rule="evenodd" clip-rule="evenodd" d="M4.28486 7.16309C4.49834 7.01769 4.74616 6.95779 4.9824 6.95779H8.02471V14.546H6.89376L6.80159 14.4018C6.58248 14.059 6.19944 13.8328 5.76378 13.8328C5.32811 13.8328 4.94507 14.059 4.72596 14.4018L4.63379 14.546H4.05702C3.5139 14.546 3.02333 14.2215 2.81082 13.7217L2.353 12.6449C2.27906 12.471 2.24115 12.2816 2.24654 12.089C2.30177 10.1125 2.6676 8.26466 4.28486 7.16309ZM4.9824 7.58279C4.84872 7.58279 4.72897 7.6168 4.63671 7.67965C3.28868 8.59783 2.92571 10.1591 2.87129 12.1065C2.86852 12.2055 2.88797 12.3058 2.92817 12.4003L3.38599 13.4771C3.50042 13.7462 3.76457 13.921 4.05702 13.921H4.3015C4.64076 13.4873 5.16954 13.2078 5.76378 13.2078C6.35801 13.2078 6.8868 13.4873 7.22606 13.921H7.39971V7.58279H4.9824Z" fill="#05A984"/>
<path fill-rule="evenodd" clip-rule="evenodd" d="M7.39974 11.7495H16.2652C16.783 11.7495 17.2027 12.1692 17.2027 12.687V13.6085C17.2027 14.1263 16.783 14.546 16.2652 14.546H15.4743L15.3821 14.4018C15.163 14.059 14.78 13.8328 14.3443 13.8328C13.9086 13.8328 13.5256 14.059 13.3064 14.4018L13.2143 14.546H7.39974V11.7495ZM8.02474 12.3745V13.921H12.882C13.2212 13.4873 13.75 13.2078 14.3443 13.2078C14.9385 13.2078 15.4673 13.4873 15.8066 13.921H16.2652C16.4378 13.921 16.5777 13.7811 16.5777 13.6085V12.687C16.5777 12.5144 16.4378 12.3745 16.2652 12.3745H8.02474Z" fill="#05A984"/>
<path fill-rule="evenodd" clip-rule="evenodd" d="M4.84643 10.3585V7.3503H5.47143V10.9835L2.64581 10.9835V10.3585L4.84643 10.3585Z" fill="#05A984"/>
<path fill-rule="evenodd" clip-rule="evenodd" d="M7.38865 6.96385H17.3128L18.754 9.32761L16.8949 12.3356H7.38865L7.38865 6.96385ZM8.01365 7.58885L8.01365 11.7106H16.5465L18.0207 9.32538L16.9619 7.58885H8.01365Z" fill="#05A984"/>
<path fill-rule="evenodd" clip-rule="evenodd" d="M11.8639 4.08105L17.2307 6.95609L17.0831 7.54406L8.05872 7.54404L7.87505 6.97871L11.8639 4.08105ZM11.9142 4.81703L9.02061 6.91904L15.838 6.91906L11.9142 4.81703Z" fill="#05A984"/>
<path fill-rule="evenodd" clip-rule="evenodd" d="M5.76378 13.8328C5.08414 13.8328 4.53317 14.3837 4.53317 15.0634C4.53317 15.743 5.08413 16.294 5.76376 16.294C6.4434 16.294 6.99435 15.743 6.99435 15.0634C6.99435 14.3837 6.44341 13.8328 5.76378 13.8328ZM3.90817 15.0634C3.90817 14.0386 4.73896 13.2078 5.76378 13.2078C6.78859 13.2078 7.61935 14.0386 7.61935 15.0634C7.61935 16.0882 6.78858 16.919 5.76376 16.919C4.73895 16.919 3.90817 16.0882 3.90817 15.0634Z" fill="#05A984"/>
<path fill-rule="evenodd" clip-rule="evenodd" d="M14.3443 13.8328C13.6647 13.8328 13.1136 14.3837 13.1136 15.0634C13.1136 15.743 13.6646 16.294 14.3442 16.294C15.0239 16.294 15.5748 15.743 15.5748 15.0634C15.5748 14.3837 15.0239 13.8328 14.3443 13.8328ZM12.4886 15.0634C12.4886 14.0386 13.3195 13.2078 14.3443 13.2078C15.3691 13.2078 16.1998 14.0386 16.1998 15.0634C16.1998 16.0882 15.3691 16.919 14.3442 16.919C13.3194 16.919 12.4886 16.0882 12.4886 15.0634Z" fill="#05A984"/>
<path fill-rule="evenodd" clip-rule="evenodd" d="M10.7442 7.38789L8.10182 12.1742L7.55467 11.8721L10.1971 7.08582L10.7442 7.38789Z" fill="#05A984"/>
<path fill-rule="evenodd" clip-rule="evenodd" d="M13.9075 7.38789L11.2651 12.1742L10.7179 11.8721L13.3603 7.08582L13.9075 7.38789Z" fill="#05A984"/>
<path fill-rule="evenodd" clip-rule="evenodd" d="M17.0707 7.38789L14.4283 12.1742L13.8812 11.8721L16.5236 7.08582L17.0707 7.38789Z" fill="#05A984"/>
</svg>
