<svg width="20" height="21" viewBox="0 0 20 21" fill="none" xmlns="http://www.w3.org/2000/svg">
<path fill-rule="evenodd" clip-rule="evenodd" d="M5.35819 3.36086C5.46013 3.29647 5.59002 3.29647 5.69196 3.36086L8.13909 4.90655C8.22974 4.96381 8.28471 5.06354 8.28471 5.17076L8.28471 7.94653C8.28471 8.34923 7.95825 8.67569 7.55554 8.67569H3.49462C3.09191 8.67569 2.76545 8.34923 2.76545 7.94653L2.76545 5.17076C2.76545 5.06354 2.82041 4.96381 2.91106 4.90655L5.35819 3.36086ZM3.39045 5.34299L3.39045 7.94653C3.39045 8.00406 3.43709 8.05069 3.49462 8.05069H7.55554C7.61307 8.05069 7.65971 8.00406 7.65971 7.94653L7.65971 5.34299L5.52508 3.99469L3.39045 5.34299Z" fill="#05A984"/>
<path fill-rule="evenodd" clip-rule="evenodd" d="M5.3621 3.35846C5.46368 3.29633 5.59174 3.29734 5.69233 3.36104L9.06511 5.49691L8.73072 6.02493L5.52226 3.99312L2.19564 6.02752L1.86956 5.49432L5.3621 3.35846Z" fill="#05A984"/>
<path fill-rule="evenodd" clip-rule="evenodd" d="M14.4235 3.36086C14.5255 3.29647 14.6553 3.29647 14.7573 3.36086L17.2044 4.90655C17.2951 4.9638 17.35 5.06354 17.35 5.17076L17.35 7.94652C17.35 8.34923 17.0236 8.67569 16.6209 8.67569H12.5599C12.1572 8.67569 11.8308 8.34923 11.8308 7.94652L11.8308 5.17076C11.8308 5.06354 11.8857 4.9638 11.9764 4.90655L14.4235 3.36086ZM12.4558 5.34299L12.4558 7.94652C12.4558 8.00405 12.5024 8.05069 12.5599 8.05069H16.6209C16.6784 8.05069 16.725 8.00405 16.725 7.94652L16.725 5.34299L14.5904 3.99468L12.4558 5.34299Z" fill="#05A984"/>
<path fill-rule="evenodd" clip-rule="evenodd" d="M14.4274 3.3584C14.529 3.29628 14.6571 3.29728 14.7576 3.36099L18.1304 5.49685L17.796 6.02488L14.5876 3.99307L11.261 6.02747L10.9349 5.49427L14.4274 3.3584Z" fill="#05A984"/>
<path fill-rule="evenodd" clip-rule="evenodd" d="M14.4235 12.3727C14.5255 12.3083 14.6553 12.3083 14.7573 12.3727L17.2044 13.9183C17.2951 13.9756 17.35 14.0753 17.35 14.1826L17.35 16.9583C17.35 17.361 17.0236 17.6875 16.6209 17.6875H12.5599C12.1572 17.6875 11.8308 17.361 11.8308 16.9583L11.8308 14.1826C11.8308 14.0753 11.8857 13.9756 11.9764 13.9183L14.4235 12.3727ZM12.4558 14.3548L12.4558 16.9583C12.4558 17.0159 12.5024 17.0625 12.5599 17.0625H16.6209C16.6784 17.0625 16.725 17.0159 16.725 16.9583L16.725 14.3548L14.5904 13.0065L12.4558 14.3548Z" fill="#05A984"/>
<path fill-rule="evenodd" clip-rule="evenodd" d="M14.4274 12.3702C14.529 12.3081 14.6571 12.3091 14.7576 12.3728L18.1304 14.5087L17.796 15.0367L14.5876 13.0049L11.261 15.0393L10.9349 14.5061L14.4274 12.3702Z" fill="#05A984"/>
<path fill-rule="evenodd" clip-rule="evenodd" d="M5.65775 12.2672L8.41738 14.0103L8.41738 16.9583C8.41738 17.361 8.09092 17.6875 7.68821 17.6875H3.62729C3.22458 17.6875 2.89812 17.361 2.89812 16.9583L2.89812 14.0103L5.65775 12.2672ZM3.52312 14.3548L3.52312 16.9583C3.52312 17.0159 3.56976 17.0625 3.62729 17.0625H7.68821C7.74574 17.0625 7.79238 17.0159 7.79238 16.9583L7.79238 14.3548L5.65775 13.0065L3.52312 14.3548Z" fill="#05A984"/>
<path fill-rule="evenodd" clip-rule="evenodd" d="M5.49476 12.3702C5.59634 12.3081 5.72439 12.3091 5.82498 12.3728L9.19776 14.5087L8.86338 15.0367L5.65491 13.0049L2.32829 15.0393L2.00221 14.5061L5.49476 12.3702Z" fill="#05A984"/>
<path fill-rule="evenodd" clip-rule="evenodd" d="M7.13209 14.4541L5.32136 16.5578L4.18732 15.2898L4.65318 14.8732L5.31235 15.6102L6.6584 14.0464L7.13209 14.4541Z" fill="#05A984"/>
<path fill-rule="evenodd" clip-rule="evenodd" d="M15.2445 7.37094L13.4944 5.62085L13.9363 5.17891L15.6864 6.929L15.2445 7.37094Z" fill="#05A984"/>
<path fill-rule="evenodd" clip-rule="evenodd" d="M15.6864 5.6208L13.9363 7.37089L13.4943 6.92895L15.2444 5.17886L15.6864 5.6208Z" fill="#05A984"/>
<path fill-rule="evenodd" clip-rule="evenodd" d="M15.2445 16.4312L13.4944 14.6811L13.9363 14.2392L15.6864 15.9893L15.2445 16.4312Z" fill="#05A984"/>
<path fill-rule="evenodd" clip-rule="evenodd" d="M15.6864 14.6811L13.9363 16.4312L13.4943 15.9892L15.2444 14.2391L15.6864 14.6811Z" fill="#05A984"/>
<path fill-rule="evenodd" clip-rule="evenodd" d="M6.11932 7.37094L4.36923 5.62085L4.81117 5.17891L6.56126 6.929L6.11932 7.37094Z" fill="#05A984"/>
<path fill-rule="evenodd" clip-rule="evenodd" d="M6.56119 5.6208L4.8111 7.37089L4.36916 6.92895L6.11925 5.17886L6.56119 5.6208Z" fill="#05A984"/>
</svg>
