<svg width="21" height="21" viewBox="0 0 21 21" fill="none" xmlns="http://www.w3.org/2000/svg">
<path d="M11.4083 17.1666C11.4083 17.3392 11.2684 17.4791 11.0958 17.4791C10.9232 17.4791 10.7833 17.3392 10.7833 17.1666C10.7833 16.994 10.9232 16.8541 11.0958 16.8541C11.2684 16.8541 11.4083 16.994 11.4083 17.1666Z" fill="#05A984"/>
<path fill-rule="evenodd" clip-rule="evenodd" d="M3.18907 16.5416C3.18907 14.6431 4.72809 13.1041 6.62657 13.1041H13.7099C15.6084 13.1041 17.1474 14.6431 17.1474 16.5416V18.7291H3.18907V16.5416ZM6.62657 13.7291C5.07327 13.7291 3.81407 14.9883 3.81407 16.5416V18.1041H16.5224V16.5416C16.5224 14.9883 15.2632 13.7291 13.7099 13.7291H6.62657Z" fill="#05A984"/>
<path fill-rule="evenodd" clip-rule="evenodd" d="M11.6539 13.4165V11.1518H12.2789V13.4165H11.6539ZM8.20018 13.4166V11.1518H8.82518V13.4166H8.20018Z" fill="#05A984"/>
<path fill-rule="evenodd" clip-rule="evenodd" d="M14.0224 18.4165V13.4166H14.6474V18.4165H14.0224ZM5.68907 18.4166V13.4166H6.31407V18.4166H5.68907Z" fill="#05A984"/>
<path fill-rule="evenodd" clip-rule="evenodd" d="M8.97346 14.843L9.90644 13.4117H10.43L11.363 14.843L11.965 13.4578L12.5382 13.7069L11.4735 16.1569L10.4807 14.634V18.4166H9.85573V14.634L8.86301 16.1569L7.79829 13.7069L8.37151 13.4578L8.97346 14.843Z" fill="#05A984"/>
<path fill-rule="evenodd" clip-rule="evenodd" d="M8.47661 3.99247C9.60886 4.94582 10.8217 5.65407 13.1904 6.74821C13.5222 5.96751 13.6058 5.52899 13.4193 5.0815C13.2714 4.72647 12.8207 4.17071 12.2508 3.69564C11.9709 3.46234 11.6744 3.25885 11.3894 3.11508C11.1007 2.96944 10.845 2.89576 10.6408 2.89575C9.7697 2.89572 9.24041 3.07148 8.9263 3.30076C8.67119 3.48698 8.53466 3.72552 8.47661 3.99247ZM8.55781 2.79595C9.01867 2.45954 9.69683 2.27072 10.6408 2.27075C10.9813 2.27076 11.3374 2.38879 11.6709 2.55708C12.0082 2.72723 12.3443 2.95991 12.651 3.21555C13.2542 3.71836 13.7923 4.35161 13.9963 4.84111C14.3206 5.61946 14.0589 6.34864 13.6338 7.29318L13.5047 7.57984L13.2188 7.44913C10.5456 6.22685 9.22027 5.46142 7.93657 4.35334L7.81279 4.24649L7.83 4.08389C7.88016 3.60987 8.08707 3.13956 8.55781 2.79595Z" fill="#05A984"/>
<path fill-rule="evenodd" clip-rule="evenodd" d="M8.89271 4.32995L9.02331 4.42826C10.053 5.20337 11.2712 5.86852 13.3929 6.8414L13.5854 6.92968L13.5747 7.14121C13.5688 7.25861 13.5616 7.37679 13.5544 7.49328C13.5544 7.49331 13.5544 7.49325 13.5544 7.49328L13.5543 7.49571L13.5542 7.49687C13.5372 7.77397 13.521 8.04115 13.521 8.29811C13.521 9.3207 13.0938 10.2402 12.6581 10.9322C12.0907 11.8333 11.333 12.4791 10.271 12.4791C9.18431 12.4791 8.46915 11.6783 7.92371 10.8119C7.50224 10.1425 7.02096 9.33459 7.02096 8.29811C7.02096 8.09437 7.00857 7.88829 6.99228 7.679L6.98256 7.55405L7.06187 7.45701C7.28651 7.18215 7.6836 6.68799 8.05785 6.18101C8.3617 5.76939 8.6341 5.37084 8.79364 5.0778L8.17634 4.56973L8.71028 4.39021C8.71934 4.38717 8.7284 4.38415 8.73747 4.38116L8.89271 4.32995ZM9.32625 5.40577C9.13645 5.74795 8.84694 6.16442 8.56068 6.55219C8.21864 7.01555 7.85956 7.46636 7.62466 7.75572C7.63694 7.93223 7.64596 8.1142 7.64596 8.29811C7.64596 9.13747 8.0308 9.80898 8.45261 10.4789C8.9848 11.3242 9.53734 11.8541 10.271 11.8541C11.0291 11.8541 11.619 11.4096 12.1292 10.5992C12.5368 9.95181 12.896 9.15136 12.896 8.29811C12.896 8.01956 12.9135 7.73387 12.9302 7.46102L12.9305 7.45728L12.9305 7.45612C12.9306 7.45533 12.9306 7.45454 12.9307 7.45376C12.9334 7.40901 12.9361 7.36459 12.9388 7.32045C11.3387 6.58167 10.238 6.00707 9.32625 5.40577Z" fill="#05A984"/>
<path fill-rule="evenodd" clip-rule="evenodd" d="M8.05428 3.6598L9.5591 4.89833L9.47099 5.11194C9.37175 5.35251 9.18402 5.65972 8.97338 5.97106C8.75917 6.28768 8.50818 6.62748 8.27008 6.93831C8.03166 7.24957 7.80436 7.53414 7.63678 7.74078C7.55294 7.84416 7.48392 7.92819 7.43578 7.98648C7.4117 8.01562 7.39284 8.03834 7.37994 8.05383L7.36517 8.07156L7.36002 8.07771C7.36 8.07774 7.3599 8.07785 7.12039 7.87713C6.82221 7.97065 6.8222 7.9706 6.82218 7.97054L6.82147 7.96828L6.81968 7.9625L6.81312 7.94106C6.80748 7.92249 6.79938 7.89553 6.78931 7.86114C6.76917 7.79237 6.74108 7.69376 6.70887 7.57303C6.64457 7.332 6.56327 7.00063 6.49608 6.64129C6.42917 6.28345 6.37465 5.88957 6.36707 5.52574C6.35972 5.17307 6.39465 4.80049 6.54603 4.5187C6.73878 4.15987 6.94095 3.92316 7.19929 3.7916C7.45153 3.66314 7.7142 3.66013 7.94205 3.65991L8.05428 3.6598ZM7.12039 7.87713L6.82218 7.97054L6.99311 8.51552L7.36002 8.07771L7.12039 7.87713ZM7.26094 7.21135C7.2111 7.01194 7.15704 6.77566 7.11043 6.52641C7.04671 6.18561 6.99852 5.82886 6.99193 5.51271C6.98511 5.1854 7.02452 4.94866 7.09661 4.81446C7.2614 4.5077 7.38666 4.39755 7.48291 4.34854C7.56799 4.30521 7.66464 4.29011 7.83175 4.28611L8.79364 5.0778C8.7103 5.23079 8.59455 5.41565 8.45573 5.62084C8.25106 5.92336 8.00817 6.25243 7.77392 6.55825C7.5884 6.80044 7.40944 7.02657 7.26094 7.21135Z" fill="#05A984"/>
</svg>
