<svg width="21" height="21" viewBox="0 0 21 21" fill="none" xmlns="http://www.w3.org/2000/svg">
<path fill-rule="evenodd" clip-rule="evenodd" d="M4.05028 7.23214L4.23921 7.37553C4.80993 7.8087 5.94129 8.1339 7.29369 8.1339C8.64608 8.1339 9.77744 7.8087 10.3482 7.37553L10.5371 7.23214L10.726 7.37553C11.0844 7.64751 11.3505 8.0097 11.3505 8.44634C11.3505 8.77632 11.1968 9.0663 10.9688 9.30301C10.7422 9.5382 10.4293 9.73573 10.0669 9.89485C9.34118 10.2135 8.36045 10.4027 7.29369 10.4027C6.22693 10.4027 5.24619 10.2135 4.52045 9.89485C4.15803 9.73573 3.84518 9.5382 3.61859 9.30301C3.39054 9.0663 3.2369 8.77632 3.2369 8.44634C3.2369 8.0097 3.50299 7.64751 3.86135 7.37553L4.05028 7.23214ZM4.07326 8.01834C3.92002 8.1754 3.8619 8.3218 3.8619 8.44634C3.8619 8.57029 3.9178 8.71276 4.06869 8.86938C4.22105 9.02752 4.45653 9.18421 4.7717 9.32257C5.40112 9.5989 6.29253 9.77768 7.29369 9.77768C8.29484 9.77768 9.18625 9.5989 9.81568 9.32257C10.1308 9.18421 10.3663 9.02752 10.5187 8.86938C10.6696 8.71276 10.7255 8.57029 10.7255 8.44634C10.7255 8.3218 10.6674 8.1754 10.5141 8.01834C9.76575 8.48142 8.5837 8.7589 7.29369 8.7589C6.00368 8.7589 4.82162 8.48142 4.07326 8.01834Z" fill="#05A984"/>
<path fill-rule="evenodd" clip-rule="evenodd" d="M4.06869 4.73569C3.9178 4.8923 3.8619 5.03478 3.8619 5.15873C3.8619 5.28268 3.9178 5.42515 4.06869 5.58177C4.22105 5.73991 4.45653 5.89659 4.7717 6.03496C5.40112 6.31129 6.29253 6.49006 7.29369 6.49006C8.29484 6.49006 9.18625 6.31129 9.81568 6.03496C10.1308 5.89659 10.3663 5.73991 10.5187 5.58177C10.6696 5.42515 10.7255 5.28268 10.7255 5.15873C10.7255 5.03478 10.6696 4.8923 10.5187 4.73569C10.3663 4.57754 10.1308 4.42086 9.81568 4.2825C9.18625 4.00617 8.29484 3.82739 7.29369 3.82739C6.29253 3.82739 5.40112 4.00617 4.7717 4.2825C4.45653 4.42086 4.22105 4.57754 4.06869 4.73569ZM4.52045 3.71022C5.24619 3.3916 6.22693 3.20239 7.29369 3.20239C8.36045 3.20239 9.34118 3.3916 10.0669 3.71022C10.4293 3.86933 10.7422 4.06687 10.9688 4.30206C11.1968 4.53877 11.3505 4.82875 11.3505 5.15873C11.3505 5.48871 11.1968 5.77868 10.9688 6.0154C10.7422 6.25058 10.4293 6.44812 10.0669 6.60723C9.34118 6.92585 8.36045 7.11506 7.29369 7.11506C6.22693 7.11506 5.24619 6.92585 4.52045 6.60723C4.15803 6.44812 3.84518 6.25058 3.61859 6.0154C3.39054 5.77868 3.2369 5.48871 3.2369 5.15873C3.2369 4.82875 3.39054 4.53877 3.61859 4.30206C3.84518 4.06687 4.15803 3.86933 4.52045 3.71022Z" fill="#05A984"/>
<path fill-rule="evenodd" clip-rule="evenodd" d="M4.05035 5.58846L4.23926 5.73183C4.81001 6.16498 5.94134 6.49006 7.29369 6.49006C8.64603 6.49006 9.77736 6.16498 10.3481 5.73183L10.537 5.58846L10.7259 5.73183C11.0843 6.00383 11.3505 6.36603 11.3505 6.8027C11.3505 7.13268 11.1968 7.42266 10.9688 7.65937C10.7422 7.89456 10.4293 8.0921 10.0669 8.25121C9.34118 8.56983 8.36045 8.7589 7.29369 8.7589C6.22693 8.7589 5.24619 8.56983 4.52045 8.25121C4.15803 8.0921 3.84518 7.89456 3.61859 7.65937C3.39054 7.42266 3.2369 7.13268 3.2369 6.8027C3.2369 6.36603 3.50303 6.00383 3.86143 5.73183L4.05035 5.58846ZM4.07332 6.37463C3.92004 6.53172 3.8619 6.67815 3.8619 6.8027C3.8619 6.92665 3.9178 7.06913 4.06869 7.22574C4.22105 7.38389 4.45653 7.54057 4.7717 7.67893C5.40112 7.95526 6.29253 8.1339 7.29369 8.1339C8.29484 8.1339 9.18625 7.95526 9.81568 7.67893C10.1308 7.54057 10.3663 7.38389 10.5187 7.22574C10.6696 7.06913 10.7255 6.92665 10.7255 6.8027C10.7255 6.67815 10.6673 6.53172 10.5141 6.37463C9.76569 6.8377 8.58366 7.11506 7.29369 7.11506C6.00371 7.11506 4.82169 6.8377 4.07332 6.37463Z" fill="#05A984"/>
<path fill-rule="evenodd" clip-rule="evenodd" d="M13.558 9.12423C11.5113 9.12423 9.85219 10.7834 9.85219 12.83C9.85219 14.8766 11.5113 16.5358 13.558 16.5358C15.6046 16.5358 17.2637 14.8766 17.2637 12.83C17.2637 10.7834 15.6046 9.12423 13.558 9.12423ZM9.22719 12.83C9.22719 10.4382 11.1661 8.49923 13.558 8.49923C15.9498 8.49923 17.8887 10.4382 17.8887 12.83C17.8887 15.2218 15.9498 17.1608 13.558 17.1608C11.1661 17.1608 9.22719 15.2218 9.22719 12.83Z" fill="#05A984"/>
<path fill-rule="evenodd" clip-rule="evenodd" d="M10.5371 8.87592L10.726 9.01931C10.952 9.19081 11.1378 9.39436 11.2469 9.63061L11.3466 9.84651L11.1651 10.0002C10.7169 10.3796 10.3603 10.8633 10.1325 11.4133L10.0826 11.5338L9.96196 11.5831C9.24863 11.8745 8.31074 12.0465 7.29369 12.0465C6.22693 12.0465 5.24619 11.8572 4.52045 11.5386C4.15803 11.3795 3.84518 11.182 3.61859 10.9468C3.39054 10.7101 3.2369 10.4201 3.2369 10.0901C3.2369 9.65348 3.50299 9.29129 3.86135 9.01931L4.05028 8.87592L4.23921 9.01931C4.80993 9.45247 5.94129 9.77768 7.29369 9.77768C8.64608 9.77768 9.77744 9.45247 10.3482 9.01931L10.5371 8.87592ZM4.07326 9.66211C3.92002 9.81918 3.8619 9.96558 3.8619 10.0901C3.8619 10.2141 3.9178 10.3565 4.06869 10.5132C4.22105 10.6713 4.45653 10.828 4.7717 10.9663C5.40112 11.2427 6.29253 11.4215 7.29369 11.4215C8.18884 11.4215 8.99707 11.2785 9.60873 11.0501C9.83755 10.5432 10.161 10.0884 10.5563 9.70812C10.5431 9.69291 10.529 9.6776 10.514 9.6622C9.7656 10.1252 8.58361 10.4027 7.29369 10.4027C6.00368 10.4027 4.82162 10.1252 4.07326 9.66211Z" fill="#05A984"/>
<path fill-rule="evenodd" clip-rule="evenodd" d="M4.05035 10.5199L4.23926 10.6633C4.81001 11.0964 5.94134 11.4215 7.29369 11.4215C8.24707 11.4215 9.10186 11.2594 9.72557 11.0046L10.4191 10.7213L10.1325 11.4133C9.95199 11.8493 9.85219 12.3277 9.85219 12.83C9.85219 12.8974 9.85399 12.9645 9.85754 13.031L9.87025 13.2693L9.64367 13.3443C8.98092 13.5636 8.16735 13.6905 7.29369 13.6905C6.22693 13.6905 5.24619 13.5013 4.52045 13.1826C4.15803 13.0235 3.84518 12.826 3.61859 12.5908C3.39054 12.3541 3.2369 12.0641 3.2369 11.7341C3.2369 11.2975 3.50303 10.9353 3.86143 10.6633L4.05035 10.5199ZM4.07332 11.3061C3.92004 11.4632 3.8619 11.6096 3.8619 11.7341C3.8619 11.8581 3.9178 12.0006 4.06869 12.1572C4.22105 12.3153 4.45653 12.472 4.7717 12.6104C5.40112 12.8867 6.29253 13.0655 7.29369 13.0655C8.01214 13.0655 8.67587 12.9734 9.22721 12.8182C9.22816 12.4633 9.27186 12.1182 9.35349 11.7879C8.7485 11.9534 8.04255 12.0465 7.29369 12.0465C6.00371 12.0465 4.82169 11.7691 4.07332 11.3061Z" fill="#05A984"/>
<path fill-rule="evenodd" clip-rule="evenodd" d="M4.05035 12.1638L4.23926 12.3071C4.81001 12.7403 5.94134 13.0655 7.29369 13.0655C8.11056 13.0655 8.85668 12.9464 9.44729 12.7509L9.83574 12.6224L9.85754 13.031C9.88385 13.524 10.0064 13.9911 10.2067 14.414L10.345 14.706L10.0486 14.8345C9.32485 15.1482 8.35167 15.3344 7.29369 15.3344C6.22693 15.3344 5.24619 15.1451 4.52045 14.8265C4.15803 14.6674 3.84518 14.4699 3.61859 14.2347C3.39054 13.998 3.2369 13.708 3.2369 13.378C3.2369 12.9413 3.50303 12.5791 3.86143 12.3071L4.05035 12.1638ZM4.07332 12.95C3.92004 13.107 3.8619 13.2535 3.8619 13.378C3.8619 13.502 3.9178 13.6444 4.06869 13.8011C4.22105 13.9592 4.45653 14.1159 4.7717 14.2542C5.40112 14.5306 6.29253 14.7094 7.29369 14.7094C8.14223 14.7094 8.91207 14.5809 9.51038 14.3734C9.39867 14.0806 9.31782 13.7726 9.27178 13.4535C8.68618 13.6052 8.01014 13.6905 7.29369 13.6905C6.00371 13.6905 4.82169 13.413 4.07332 12.95Z" fill="#05A984"/>
<path fill-rule="evenodd" clip-rule="evenodd" d="M4.17991 13.9174L4.3513 14.0298C4.95393 14.4251 6.0303 14.7094 7.29369 14.7094C8.28638 14.7094 9.17136 14.5335 9.80001 14.261L10.0774 14.1407L10.2067 14.414C10.408 14.839 10.6878 15.2196 11.0275 15.5373L11.2423 15.7382L11.0549 15.9648C10.7381 16.3477 10.1962 16.6423 9.55845 16.8419C8.912 17.0443 8.13058 17.1607 7.29369 17.1607C6.22693 17.1607 5.24619 16.9715 4.52045 16.6529C4.15803 16.4938 3.84518 16.2962 3.61859 16.061C3.39054 15.8243 3.2369 15.5344 3.2369 15.2044C3.2369 14.7116 3.5737 14.315 4.00852 14.0298L4.17991 13.9174ZM4.19546 14.6655C3.95207 14.8624 3.8619 15.0505 3.8619 15.2044C3.8619 15.3283 3.9178 15.4708 4.06869 15.6274C4.22105 15.7856 4.45653 15.9422 4.7717 16.0806C5.40112 16.3569 6.29253 16.5357 7.29369 16.5357C8.07577 16.5357 8.79334 16.4266 9.37174 16.2455C9.80455 16.11 10.1405 15.9403 10.3696 15.7608C10.1416 15.5129 9.94212 15.2383 9.77636 14.9422C9.08906 15.1903 8.22417 15.3344 7.29369 15.3344C6.06748 15.3344 4.94417 15.0838 4.19546 14.6655Z" fill="#05A984"/>
<path fill-rule="evenodd" clip-rule="evenodd" d="M13.4138 11.4922V12.7932C13.5134 12.7936 13.61 12.7929 13.7059 12.7888C13.896 12.7808 14.052 12.7597 14.1753 12.7172C14.2933 12.6765 14.3703 12.6202 14.4221 12.5436C14.4757 12.4643 14.524 12.3312 14.524 12.0994C14.524 11.8724 14.4724 11.7522 14.4206 11.6851C14.3692 11.6184 14.2896 11.5676 14.1624 11.5337C14.0312 11.4987 13.8698 11.4872 13.6807 11.4872C13.5935 11.4872 13.5051 11.4896 13.4138 11.4922ZM13.4138 13.4182C13.5202 13.4185 13.6285 13.4177 13.7325 13.4133C13.9448 13.4042 14.1712 13.3797 14.379 13.308C14.592 13.2346 14.7947 13.1083 14.9398 12.8938C15.0831 12.682 15.149 12.4155 15.149 12.0994C15.149 11.7783 15.075 11.5104 14.9156 11.3035C14.7558 11.0963 14.5386 10.9872 14.3234 10.9298C14.1121 10.8735 13.8854 10.8622 13.6807 10.8622C13.5769 10.8622 13.4733 10.8652 13.3765 10.868L13.3735 10.8681C13.2761 10.871 13.1863 10.8736 13.1013 10.8736L12.7888 10.8736V13.796H12.4621V14.421H12.7888V15.0217H13.4138V14.421H13.8319V13.796H13.4138V13.4182Z" fill="#05A984"/>
</svg>
