<svg width="21" height="21" viewBox="0 0 21 21" fill="none" xmlns="http://www.w3.org/2000/svg">
<path fill-rule="evenodd" clip-rule="evenodd" d="M11.9521 3.93909C12.1246 3.93909 12.2646 4.079 12.2646 4.25159V8.87434L14.358 10.9209C14.4814 11.0416 14.4837 11.2394 14.363 11.3628C14.2424 11.4863 14.0445 11.4885 13.9211 11.3678L11.6396 9.13739V4.25159C11.6396 4.079 11.7795 3.93909 11.9521 3.93909Z" fill="#05A984"/>
<path fill-rule="evenodd" clip-rule="evenodd" d="M7.2378 10.0354C5.14322 10.0354 3.44523 11.7334 3.44523 13.828C3.44523 15.9225 5.14322 17.6205 7.2378 17.6205C9.33238 17.6205 11.0304 15.9225 11.0304 13.828C11.0304 11.7334 9.33238 10.0354 7.2378 10.0354ZM2.82023 13.828C2.82023 11.3882 4.79805 9.41038 7.2378 9.41038C9.67756 9.41038 11.6554 11.3882 11.6554 13.828C11.6554 16.2677 9.67756 18.2455 7.2378 18.2455C4.79805 18.2455 2.82023 16.2677 2.82023 13.828Z" fill="#05A984"/>
<path fill-rule="evenodd" clip-rule="evenodd" d="M15.8947 13.9599C15.764 14.0672 15.6279 14.1699 15.4866 14.2679L15.1305 13.7542C15.258 13.6658 15.3807 13.5732 15.4984 13.4766L15.8947 13.9599ZM17.4416 12.074C17.2823 12.373 17.0978 12.6607 16.8886 12.9335L16.3926 12.5532C16.5807 12.3079 16.7466 12.0492 16.8899 11.7802L17.4416 12.074ZM10.8712 2.9691C11.0334 2.94142 11.1963 2.92025 11.3594 2.90554L11.4156 3.52801C11.2688 3.54125 11.1223 3.56029 10.9763 3.5852L10.8712 2.9691ZM18.1469 9.73969C18.1135 10.079 18.0525 10.4152 17.9647 10.7446L17.3608 10.5835C17.4399 10.2869 17.4948 9.9841 17.5249 9.67852L18.1469 9.73969ZM12.735 2.93329C13.0604 2.97584 13.3822 3.04384 13.6972 3.13671L13.5205 3.7362C13.2368 3.65257 12.947 3.59133 12.6539 3.55301L12.735 2.93329ZM17.9077 7.31241C18.0078 7.64127 18.0796 7.97538 18.1238 8.31128L17.5041 8.39274C17.4644 8.09054 17.3998 7.79005 17.3098 7.49434L17.9077 7.31241ZM14.9663 3.66836C15.2514 3.82678 15.5257 4.00848 15.786 4.21292L15.4 4.70447C15.1659 4.52064 14.9193 4.35722 14.6628 4.21471L14.9663 3.66836ZM17.0634 5.57073C17.1613 5.71205 17.2527 5.85606 17.3375 6.00237L16.7967 6.31577C16.7204 6.184 16.638 6.05421 16.5497 5.92674C16.4647 5.80411 16.3758 5.68594 16.2831 5.57229L16.7677 5.17747C16.8705 5.30366 16.9692 5.43477 17.0634 5.57073Z" fill="#05A984"/>
<path fill-rule="evenodd" clip-rule="evenodd" d="M6.32706 9.1131C6.32706 6.00646 8.84548 3.48804 11.9521 3.48804C11.9799 3.48804 12.0077 3.48824 12.0354 3.48864L12.0445 2.86371C12.0138 2.86326 11.983 2.86304 11.9521 2.86304C8.50031 2.86304 5.70206 5.66129 5.70206 9.1131C5.70206 9.41259 5.72312 9.70715 5.76385 9.9954C5.95926 9.92019 6.16188 9.8595 6.37038 9.81465C6.34179 9.58482 6.32706 9.35068 6.32706 9.1131ZM11.2512 14.6949C11.2063 14.9034 11.1457 15.106 11.0705 15.3015C11.3585 15.3421 11.6529 15.3632 11.9521 15.3632C14.4601 15.3632 16.6224 13.886 17.6176 11.7556L17.0514 11.4911C16.155 13.4098 14.2084 14.7382 11.9521 14.7382C11.7147 14.7382 11.4808 14.7235 11.2512 14.6949Z" fill="#05A984"/>
<path fill-rule="evenodd" clip-rule="evenodd" d="M7.05633 12.2325V13.8029C7.18596 13.8036 7.31121 13.8033 7.4353 13.7981C7.65363 13.7888 7.83655 13.7645 7.98311 13.714C8.1244 13.6652 8.22108 13.5961 8.28675 13.499C8.35423 13.3993 8.41049 13.2381 8.41049 12.9677C8.41049 12.7022 8.35003 12.5548 8.28343 12.4684C8.21716 12.3824 8.11673 12.3204 7.9654 12.2801C7.8101 12.2387 7.62143 12.2255 7.40464 12.2255C7.29762 12.2255 7.18897 12.2286 7.07728 12.2319L7.06903 12.2321C7.0648 12.2323 7.06057 12.2324 7.05633 12.2325ZM7.05633 14.4279C7.19124 14.4286 7.3295 14.4281 7.46186 14.4225C7.70251 14.4123 7.95579 14.3845 8.18683 14.3048C8.42315 14.2233 8.64548 14.0842 8.80442 13.8492C8.96154 13.6169 9.03549 13.3224 9.03549 12.9677C9.03549 12.6082 8.95272 12.3129 8.77844 12.0868C8.60383 11.8603 8.36572 11.74 8.12642 11.6762C7.89109 11.6134 7.63706 11.6005 7.40463 11.6005C7.28704 11.6005 7.16945 11.6039 7.05897 11.6072L7.05518 11.6073C6.94442 11.6105 6.84143 11.6136 6.74383 11.6136H6.43133V14.9469H6.01466V15.5719H6.43133V16.3011H7.05633V15.5719H7.57716V14.9469H7.05633V14.4279Z" fill="#05A984"/>
</svg>
