<svg width="21" height="21" viewBox="0 0 21 21" fill="none" xmlns="http://www.w3.org/2000/svg">
<path fill-rule="evenodd" clip-rule="evenodd" d="M14.9599 15.6146C14.9599 15.6146 15.1854 15.9287 15.3766 16.0446C15.7343 16.2615 16.0402 16.254 16.401 16.0446C16.5984 15.93 16.8349 15.6146 16.8349 15.6146V6.92293L15.8974 5.69769L14.9599 6.92293V15.6146ZM15.5849 7.13461L15.8974 6.7262L16.2099 7.13461V14.0892H15.5849V7.13461ZM15.5849 14.7142V15.3952C15.6114 15.4251 15.6377 15.4529 15.6619 15.4759C15.6887 15.5015 15.7022 15.5111 15.7022 15.5111L15.7006 15.5101C15.8075 15.575 15.861 15.5796 15.8841 15.5795C15.9101 15.5793 15.9697 15.5723 16.0872 15.504L16.0862 15.5046C16.0862 15.5046 16.1009 15.4947 16.1302 15.4679C16.1554 15.4449 16.1826 15.4173 16.2099 15.3877V14.7142H15.5849Z" fill="#05A984"/>
<path d="M6.93909 7.70527H13.3974V14.1768H12.372V13.5518H12.7724V10.8772H11.0016V10.2522H12.7724V8.33027H10.4807V9.86434H9.85575V8.33027H7.56409V10.4649H8.96958V11.531H8.34458V11.0899H7.56409V13.5518H9.85575V11.5061H11.2732V12.1311H10.4807V13.5518H11.122V14.1768H6.93909V7.70527Z" fill="#05A984"/>
<path fill-rule="evenodd" clip-rule="evenodd" d="M4.64742 4.13515V2.90674H3.50159C2.63864 2.90674 1.93909 3.60629 1.93909 4.46924V16.9085H1.98507C2.15405 17.5891 2.7687 18.0935 3.50159 18.0935H18.3974V4.13515H4.64742ZM4.64742 4.76015V15.971H3.50159C3.04843 15.971 2.67036 16.2925 2.58307 16.7199C2.67033 17.147 3.04865 17.4685 3.50159 17.4685H17.7724V4.76015H4.64742ZM4.02242 3.53174H3.50159C2.98382 3.53174 2.56409 3.95147 2.56409 4.46924V15.6229C2.82519 15.4268 3.14977 15.3106 3.50159 15.3106H4.02242V3.53174Z" fill="#05A984"/>
</svg>
