<svg width="21" height="21" viewBox="0 0 21 21" fill="none" xmlns="http://www.w3.org/2000/svg">
<path fill-rule="evenodd" clip-rule="evenodd" d="M3.18907 16.5416C3.18907 14.6431 4.72809 13.1041 6.62657 13.1041H13.7099C15.6084 13.1041 17.1474 14.6431 17.1474 16.5416V18.7291H3.18907V16.5416ZM6.62657 13.7291C5.07327 13.7291 3.81407 14.9883 3.81407 16.5416V18.1041H16.5224V16.5416C16.5224 14.9883 15.2632 13.7291 13.7099 13.7291H6.62657Z" fill="#05A984"/>
<path fill-rule="evenodd" clip-rule="evenodd" d="M11.6539 13.4165V11.1518H12.2789V13.4165H11.6539ZM8.20018 13.4166V11.1518H8.82518V13.4166H8.20018Z" fill="#05A984"/>
<path fill-rule="evenodd" clip-rule="evenodd" d="M14.0224 18.4165V13.4166H14.6474V18.4165H14.0224ZM5.68907 18.4166V13.4166H6.31407V18.4166H5.68907Z" fill="#05A984"/>
<path fill-rule="evenodd" clip-rule="evenodd" d="M8.39473 3.99247C9.52698 4.94582 10.7398 5.65407 13.1085 6.74821C13.4403 5.96751 13.5239 5.52899 13.3374 5.0815C13.1895 4.72647 12.7389 4.17071 12.1689 3.69564C11.889 3.46234 11.5925 3.25885 11.3075 3.11508C11.0188 2.96944 10.7631 2.89576 10.5589 2.89575C9.68781 2.89572 9.15852 3.07148 8.84441 3.30076C8.5893 3.48698 8.45277 3.72552 8.39473 3.99247ZM8.47592 2.79595C8.93678 2.45954 9.61494 2.27072 10.5589 2.27075C10.8994 2.27076 11.2555 2.38879 11.589 2.55708C11.9263 2.72723 12.2624 2.95991 12.5691 3.21555C13.1723 3.71836 13.7104 4.35161 13.9144 4.84111C14.2387 5.61946 13.977 6.34864 13.5519 7.29318L13.4229 7.57984L13.137 7.44913C10.4637 6.22685 9.13838 5.46142 7.85468 4.35334L7.7309 4.24649L7.74811 4.08389C7.79827 3.60987 8.00518 3.13956 8.47592 2.79595Z" fill="#05A984"/>
<path fill-rule="evenodd" clip-rule="evenodd" d="M8.81082 4.32995L8.94142 4.42826C9.97112 5.20337 11.1893 5.86852 13.311 6.8414L13.5035 6.92968L13.4928 7.14121C13.4869 7.25861 13.4797 7.37679 13.4725 7.49328C13.4725 7.49331 13.4725 7.49325 13.4725 7.49328L13.4724 7.49571L13.4723 7.49687C13.4553 7.77397 13.4391 8.04115 13.4391 8.29811C13.4391 9.3207 13.0119 10.2402 12.5762 10.9322C12.0089 11.8333 11.2511 12.4791 10.1891 12.4791C9.10242 12.4791 8.38726 11.6783 7.84182 10.8119C7.42035 10.1425 6.93907 9.33459 6.93907 8.29811C6.93907 8.09437 6.92668 7.88829 6.9104 7.679L6.90068 7.55405L6.97999 7.45701C7.20462 7.18215 7.60171 6.68799 7.97596 6.18101C8.27981 5.76939 8.55221 5.37084 8.71175 5.0778L8.09445 4.56973L8.62839 4.39021C8.63745 4.38717 8.64651 4.38415 8.65558 4.38116L8.81082 4.32995ZM9.24436 5.40577C9.05456 5.74795 8.76505 6.16442 8.4788 6.55219C8.13675 7.01555 7.77767 7.46636 7.54277 7.75572C7.55505 7.93223 7.56407 8.1142 7.56407 8.29811C7.56407 9.13747 7.94891 9.80898 8.37072 10.4789C8.90291 11.3242 9.45546 11.8541 10.1891 11.8541C10.9473 11.8541 11.5371 11.4096 12.0473 10.5992C12.4549 9.95181 12.8141 9.15136 12.8141 8.29811C12.8141 8.01956 12.8316 7.73387 12.8483 7.46102L12.8486 7.45728L12.8486 7.45612C12.8487 7.45533 12.8487 7.45454 12.8488 7.45376C12.8515 7.40901 12.8542 7.36459 12.8569 7.32045C11.2568 6.58167 10.1561 6.00707 9.24436 5.40577Z" fill="#05A984"/>
<path fill-rule="evenodd" clip-rule="evenodd" d="M7.97239 3.6598L9.47721 4.89833L9.3891 5.11194C9.28986 5.35251 9.10213 5.65972 8.8915 5.97106C8.67728 6.28768 8.42629 6.62748 8.18819 6.93831C7.94977 7.24957 7.72247 7.53414 7.55489 7.74078C7.47105 7.84416 7.40203 7.92819 7.35389 7.98648C7.32981 8.01562 7.31095 8.03834 7.29805 8.05383L7.28328 8.07156L7.27813 8.07771C7.27811 8.07774 7.27801 8.07785 7.0385 7.87713C6.74032 7.97065 6.74031 7.9706 6.74029 7.97054L6.73959 7.96828L6.73779 7.9625L6.73123 7.94106C6.72559 7.92249 6.71749 7.89553 6.70742 7.86114C6.68728 7.79237 6.65919 7.69376 6.62698 7.57303C6.56269 7.332 6.48138 7.00063 6.41419 6.64129C6.34728 6.28345 6.29277 5.88957 6.28518 5.52574C6.27783 5.17307 6.31276 4.80049 6.46414 4.5187C6.65689 4.15987 6.85906 3.92316 7.1174 3.7916C7.36964 3.66314 7.63231 3.66013 7.86016 3.65991L7.97239 3.6598ZM7.0385 7.87713L6.74029 7.97054L6.91122 8.51552L7.27813 8.07771L7.0385 7.87713ZM7.17905 7.21135C7.12921 7.01194 7.07515 6.77566 7.02854 6.52641C6.96482 6.18561 6.91664 5.82886 6.91005 5.51271C6.90322 5.1854 6.94264 4.94866 7.01473 4.81446C7.17951 4.5077 7.30477 4.39755 7.40102 4.34854C7.4861 4.30521 7.58275 4.29011 7.74986 4.28611L8.71175 5.0778C8.62841 5.23079 8.51266 5.41565 8.37384 5.62084C8.16917 5.92336 7.92628 6.25243 7.69203 6.55825C7.50651 6.80044 7.32755 7.02657 7.17905 7.21135Z" fill="#05A984"/>
<path fill-rule="evenodd" clip-rule="evenodd" d="M11.8089 16.6266V17.5833H13.6785V16.6266H11.8089Z" fill="#05A984"/>
<path fill-rule="evenodd" clip-rule="evenodd" d="M8.76879 14.8382L9.8612 13.2402L10.3789 13.2428L11.4389 14.8265L11.6361 15.0551L12.4279 13.2888L12.9982 13.5444L11.8046 16.207L11.1233 15.4176L10.3004 15.9005L9.99149 15.9048L9.12017 15.425L8.51221 16.2897L7.44846 13.529L8.03166 13.3043L8.67442 14.9724L8.76879 14.8382ZM9.47781 14.9085L10.1373 15.2716L10.7457 14.9145L10.1164 13.9743L9.47781 14.9085Z" fill="#05A984"/>
<path fill-rule="evenodd" clip-rule="evenodd" d="M8.78007 18.347L9.42089 15.5419L10.0302 15.6811L9.38937 18.4862L8.78007 18.347Z" fill="#05A984"/>
<path fill-rule="evenodd" clip-rule="evenodd" d="M11.4944 18.347L10.8536 15.5419L10.2443 15.6811L10.8851 18.4862L11.4944 18.347Z" fill="#05A984"/>
</svg>
