<svg width="20" height="21" viewBox="0 0 20 21" fill="none" xmlns="http://www.w3.org/2000/svg">
<path fill-rule="evenodd" clip-rule="evenodd" d="M10.1105 3.78589C10.0781 3.76701 10.038 3.76701 10.0056 3.78589L3.70331 7.45791V15.8872H3.07831V7.80886L2.15512 8.32065L1.85209 7.77402L3.23638 7.00662L9.69098 3.24587C9.91785 3.11368 10.1983 3.11368 10.4251 3.24587L16.8854 7.00992L18.1479 7.7806L17.8222 8.31406L17.0378 7.83521V17.4792H16.4128V7.45791L10.1105 3.78589Z" fill="#05A984"/>
<path fill-rule="evenodd" clip-rule="evenodd" d="M8.68907 16.3657L1.98484 16.3656L1.98485 15.7406L8.68782 15.7407C8.86662 15.7393 9.1439 15.7607 9.41612 15.8304C9.67508 15.8967 10.0007 16.0242 10.1915 16.2856C10.2718 16.3956 10.3361 16.5046 10.3968 16.6073C10.5826 16.9221 10.7341 17.1786 11.2047 17.2282H17.8557V17.8532H11.1742L11.1594 17.8517C10.3216 17.7718 9.97373 17.1532 9.78431 16.8163C9.74627 16.7487 9.71462 16.6924 9.68667 16.6541C9.62955 16.5758 9.48683 16.4937 9.26111 16.4359C9.04935 16.3817 8.82632 16.3645 8.6917 16.3657L8.68907 16.3657Z" fill="#05A984"/>
<path fill-rule="evenodd" clip-rule="evenodd" d="M11.6839 10.8958H15.2256V17.8531H11.6839V10.8958ZM12.3089 11.5208V17.2281H14.6006V11.5208H12.3089Z" fill="#05A984"/>
<path fill-rule="evenodd" clip-rule="evenodd" d="M5.53836 14.4374C5.13565 14.4374 4.80919 14.111 4.80919 13.7083V11.6249C4.80919 11.2222 5.13565 10.8958 5.53836 10.8958H9.49636C9.89907 10.8958 10.2255 11.2222 10.2255 11.6249V13.7083C10.2255 14.111 9.89907 14.4374 9.49636 14.4374H5.53836ZM5.43419 13.7083C5.43419 13.7658 5.48083 13.8124 5.53836 13.8124H7.20486V11.5208H5.53836C5.48083 11.5208 5.43419 11.5674 5.43419 11.6249V13.7083ZM7.82986 11.5208V13.8124H9.49636C9.55389 13.8124 9.60053 13.7658 9.60053 13.7083V11.6249C9.60053 11.5674 9.55389 11.5208 9.49636 11.5208H7.82986Z" fill="#05A984"/>
<path fill-rule="evenodd" clip-rule="evenodd" d="M8.62116 6.99062H9.62659V5.98519C9.12968 6.10257 8.73854 6.49371 8.62116 6.99062ZM10.2516 5.98519V6.99062H11.257C11.1396 6.49371 10.7485 6.10257 10.2516 5.98519ZM11.257 7.61562H10.2516V8.62105C10.7485 8.50367 11.1396 8.11253 11.257 7.61562ZM9.62659 8.62105V7.61562H8.62116C8.73854 8.11253 9.12968 8.50367 9.62659 8.62105ZM7.95993 7.30312C7.95993 6.21006 8.84603 5.32395 9.93909 5.32395C11.0322 5.32395 11.9183 6.21006 11.9183 7.30312C11.9183 8.39618 11.0322 9.28229 9.93909 9.28229C8.84603 9.28229 7.95993 8.39618 7.95993 7.30312Z" fill="#05A984"/>
<path d="M13.1631 14.2823C13.1631 14.4549 13.0232 14.5948 12.8506 14.5948C12.678 14.5948 12.5381 14.4549 12.5381 14.2823C12.5381 14.1097 12.678 13.9698 12.8506 13.9698C13.0232 13.9698 13.1631 14.1097 13.1631 14.2823Z" fill="#05A984"/>
</svg>
