<svg width="21" height="21" viewBox="0 0 21 21" fill="none" xmlns="http://www.w3.org/2000/svg">
<path d="M10.4424 17.4476C10.4424 17.6202 10.3025 17.7601 10.1299 17.7601C9.95733 17.7601 9.81742 17.6202 9.81742 17.4476C9.81742 17.275 9.95733 17.1351 10.1299 17.1351C10.3025 17.1351 10.4424 17.275 10.4424 17.4476Z" fill="#05A984"/>
<path d="M12.9424 17.4476C12.9424 17.6202 12.8025 17.7601 12.6299 17.7601C12.4573 17.7601 12.3174 17.6202 12.3174 17.4476C12.3174 17.275 12.4573 17.1351 12.6299 17.1351C12.8025 17.1351 12.9424 17.275 12.9424 17.4476Z" fill="#05A984"/>
<path d="M15.4424 17.4476C15.4424 17.6202 15.3025 17.7601 15.1299 17.7601C14.9573 17.7601 14.8174 17.6202 14.8174 17.4476C14.8174 17.275 14.9573 17.1351 15.1299 17.1351C15.3025 17.1351 15.4424 17.275 15.4424 17.4476Z" fill="#05A984"/>
<path fill-rule="evenodd" clip-rule="evenodd" d="M17.4839 16.8226H7.77595C7.43077 16.8226 7.15095 17.1024 7.15095 17.4476C7.15095 17.7927 7.43077 18.0726 7.77595 18.0726H17.4839C17.8291 18.0726 18.1089 17.7927 18.1089 17.4476C18.1089 17.1024 17.8291 16.8226 17.4839 16.8226ZM7.77595 16.1976C7.08559 16.1976 6.52595 16.7572 6.52595 17.4476C6.52595 18.1379 7.08559 18.6976 7.77595 18.6976H17.4839C18.1742 18.6976 18.7339 18.1379 18.7339 17.4476C18.7339 16.7572 18.1742 16.1976 17.4839 16.1976H7.77595Z" fill="#05A984"/>
<path fill-rule="evenodd" clip-rule="evenodd" d="M8.76809 8.29382C8.98156 8.14841 9.22939 8.08852 9.46563 8.08852H12.5079V15.6767H8.54025C7.99713 15.6767 7.50656 15.3522 7.29404 14.8524L6.83623 13.7756C6.76228 13.6017 6.72438 13.4123 6.72976 13.2197C6.785 11.2432 7.15083 9.39539 8.76809 8.29382ZM9.46563 8.71352C9.33194 8.71352 9.2122 8.74753 9.11993 8.81038C7.7719 9.72856 7.40894 11.2898 7.35452 13.2372C7.35175 13.3363 7.37119 13.4365 7.4114 13.5311L7.86921 14.6078C7.98364 14.877 8.2478 15.0517 8.54025 15.0517H11.8829V8.71352H9.46563Z" fill="#05A984"/>
<path fill-rule="evenodd" clip-rule="evenodd" d="M11.8829 10.885H17.0109C17.7588 10.885 18.3651 11.4913 18.3651 12.2392V14.3226C18.3651 15.0704 17.7588 15.6767 17.0109 15.6767H11.8829V10.885ZM12.5079 11.51V15.0517H17.0109C17.4136 15.0517 17.7401 14.7253 17.7401 14.3226V12.2392C17.7401 11.8365 17.4136 11.51 17.0109 11.51H12.5079Z" fill="#05A984"/>
<path fill-rule="evenodd" clip-rule="evenodd" d="M9.32966 11.4892V8.48103H9.95466V12.1142L7.12905 12.1142V11.4892L9.32966 11.4892Z" fill="#05A984"/>
<path fill-rule="evenodd" clip-rule="evenodd" d="M18.2226 12.9637H15.9775V12.3387H18.2226V12.9637Z" fill="#05A984"/>
<path fill-rule="evenodd" clip-rule="evenodd" d="M18.2226 14.0308L16.6834 14.0309L16.6834 13.4059L18.2226 13.4058L18.2226 14.0308Z" fill="#05A984"/>
<path fill-rule="evenodd" clip-rule="evenodd" d="M4.16743 12.0214L5.17987 14.357L6.55733 14.5236L6.42491 14.8924C6.09462 15.8122 5.16317 16.4159 4.15149 16.2936C2.97687 16.1515 2.13985 15.084 2.28196 13.9094C2.39274 12.9937 3.06571 12.2838 3.91252 12.0821L4.16743 12.0214ZM3.81141 12.7716C3.33038 12.9781 2.96975 13.4281 2.90243 13.9845C2.80179 14.8164 3.39462 15.5724 4.22656 15.6731C4.79909 15.7423 5.33612 15.483 5.64788 15.0432L4.74898 14.9344L3.81141 12.7716Z" fill="#05A984"/>
<path fill-rule="evenodd" clip-rule="evenodd" d="M8.57264 2.74052L15.9986 5.03639L17.7161 11.4914H14.3229L13.8957 7.05747L8.06619 4.85172L8.70865 3.77886C8.79613 3.63278 8.8096 3.46452 8.76058 3.31474L8.57264 2.74052ZM9.40283 3.65137C9.38179 3.80527 9.32999 3.9578 9.24486 4.09996L8.98636 4.53164L14.4805 6.61051L14.8906 10.8664H16.9031L15.4836 5.53134L9.40283 3.65137Z" fill="#05A984"/>
<path fill-rule="evenodd" clip-rule="evenodd" d="M3.95185 10.0045L4.55738 9.94837C4.57554 10.0022 4.6124 10.049 4.66515 10.079C4.74281 10.1231 4.83539 10.1191 4.90767 10.0746L5.36977 10.434L4.55098 13.0509L3.96373 13.0765L3.66408 12.3481L3.64366 12.1854L3.95185 10.0045ZM4.48718 10.683L4.3638 11.5561L4.62517 10.7208C4.57871 10.7121 4.53255 10.6996 4.48718 10.683Z" fill="#05A984"/>
<path fill-rule="evenodd" clip-rule="evenodd" d="M8.77049 2.43465C9.37958 2.74883 9.59697 3.51198 9.24486 4.09996L5.52276 10.3156C5.28191 10.7178 4.76393 10.854 4.35634 10.6224C3.96153 10.398 3.80825 9.90598 4.00577 9.49707L7.15694 2.97346C7.44749 2.37198 8.17683 2.12843 8.77049 2.43465ZM8.70865 3.77886C8.87543 3.50037 8.77246 3.13892 8.48397 2.99011C8.20279 2.84507 7.85734 2.96042 7.71973 3.24531L4.56855 9.76892C4.51412 9.88159 4.55636 10.0172 4.66515 10.079C4.77746 10.1428 4.92019 10.1053 4.98656 9.99445L8.70865 3.77886Z" fill="#05A984"/>
</svg>
