<svg width="20" height="21" viewBox="0 0 20 21" fill="none" xmlns="http://www.w3.org/2000/svg">
<path fill-rule="evenodd" clip-rule="evenodd" d="M8.7761 15.4188L2.07186 15.4187L2.07187 14.7937L8.77484 14.7938C8.95364 14.7924 9.23092 14.8138 9.50314 14.8835C9.7621 14.9498 10.0877 15.0773 10.2785 15.3387C10.3588 15.4487 10.4231 15.5576 10.4838 15.6604C10.6697 15.9752 10.8211 16.2316 11.2917 16.2812H17.9428V16.9062H11.2612L11.2464 16.9048C10.4086 16.8249 10.0608 16.2063 9.87133 15.8694C9.83329 15.8018 9.80164 15.7455 9.77369 15.7072C9.71657 15.6289 9.57385 15.5468 9.34813 15.489C9.13637 15.4348 8.91334 15.4176 8.77872 15.4187L8.7761 15.4188Z" fill="#05A984"/>
<path fill-rule="evenodd" clip-rule="evenodd" d="M8.2836 4.82292C8.2836 4.42021 8.61006 4.09375 9.01277 4.09375H10.6419C11.0446 4.09375 11.3711 4.42021 11.3711 4.82292V10.3676L11.4701 10.2686C11.7549 9.98381 12.2165 9.98381 12.5013 10.2686L12.9005 10.6677C13.1852 10.9525 13.1852 11.4142 12.9005 11.6989L11.3711 13.2283V16.1317C11.3711 16.5762 10.8412 16.8255 10.5042 16.5114C10.2195 16.2462 9.79293 15.8345 9.61273 15.5727C9.60171 15.5566 9.55707 15.5163 9.43491 15.4802C9.32058 15.4464 9.18016 15.4287 9.04038 15.4217C8.65488 15.4026 8.2836 15.0964 8.2836 14.6575V9.52829L6.59383 7.83852C6.30907 7.55376 6.30907 7.09208 6.59383 6.80732L6.993 6.40814C7.27776 6.12338 7.73944 6.12338 8.0242 6.40814L8.2836 6.66754V4.82292ZM9.01277 4.71875C8.95524 4.71875 8.9086 4.76539 8.9086 4.82292V8.17643L7.58226 6.85008C7.54158 6.8094 7.47563 6.8094 7.43495 6.85008L7.03577 7.24926C6.99509 7.28994 6.99509 7.35589 7.03577 7.39657L8.9086 9.26941V14.6575C8.9086 14.6867 8.92053 14.7176 8.94992 14.7458C8.98051 14.7751 9.02445 14.7952 9.07138 14.7975C9.23554 14.8056 9.43095 14.8273 9.61212 14.8808C9.78546 14.9321 9.99598 15.0271 10.1276 15.2183C10.2345 15.3736 10.4931 15.6375 10.7461 15.8801V12.9695L12.4585 11.257C12.4992 11.2163 12.4992 11.1504 12.4585 11.1097L12.0594 10.7105C12.0187 10.6698 11.9527 10.6698 11.912 10.7105L10.7461 11.8765V4.82292C10.7461 4.76539 10.6994 4.71875 10.6419 4.71875H9.01277Z" fill="#05A984"/>
<path fill-rule="evenodd" clip-rule="evenodd" d="M4.57064 9.45833C4.51311 9.45833 4.46647 9.50497 4.46647 9.5625V12.916L3.25919 11.7087C3.21851 11.668 3.15256 11.668 3.11188 11.7087L2.7127 12.1079C2.67202 12.1486 2.67202 12.2145 2.7127 12.2552L4.46647 14.009V14.6895C4.46647 14.7471 4.51311 14.7937 4.57064 14.7937H6.19977C6.2573 14.7937 6.30394 14.7471 6.30394 14.6895V9.5625C6.30394 9.50497 6.2573 9.45833 6.19977 9.45833H4.57064ZM3.84147 9.5625C3.84147 9.15979 4.16793 8.83333 4.57064 8.83333H6.19977C6.60248 8.83333 6.92894 9.15979 6.92894 9.5625V14.6895C6.92894 15.0922 6.60248 15.4187 6.19977 15.4187H4.57064C4.16793 15.4187 3.84147 15.0922 3.84147 14.6895V14.2679L2.27076 12.6971C1.986 12.4124 1.986 11.9507 2.27076 11.666L2.66993 11.2668C2.95469 10.982 3.41637 10.982 3.70113 11.2668L3.84147 11.4071V9.5625Z" fill="#05A984"/>
<path fill-rule="evenodd" clip-rule="evenodd" d="M14.154 11.3854C14.0965 11.3854 14.0498 11.4321 14.0498 11.4896V16.1771C14.0498 16.2346 14.0965 16.2812 14.154 16.2812H15.7831C15.8407 16.2812 15.8873 16.2346 15.8873 16.1771V14.9234L17.1656 13.6451C17.2063 13.6044 17.2063 13.5385 17.1656 13.4978L16.7664 13.0986C16.7257 13.058 16.6598 13.058 16.6191 13.0986L15.8873 13.8304V11.4896C15.8873 11.4321 15.8407 11.3854 15.7831 11.3854H14.154ZM13.4248 11.4896C13.4248 11.0869 13.7513 10.7604 14.154 10.7604H15.7831C16.1858 10.7604 16.5123 11.0869 16.5123 11.4896V12.4657C16.7534 12.4044 17.0197 12.468 17.2084 12.6567L17.6075 13.0559C17.8923 13.3406 17.8923 13.8023 17.6075 14.0871L16.5123 15.1823V16.1771C16.5123 16.5798 16.1858 16.9062 15.7831 16.9062H14.154C13.7513 16.9062 13.4248 16.5798 13.4248 16.1771V11.4896Z" fill="#05A984"/>
<path fill-rule="evenodd" clip-rule="evenodd" d="M10.8594 6.38542H10.0261V5.76042H10.8594V6.38542Z" fill="#05A984"/>
<path fill-rule="evenodd" clip-rule="evenodd" d="M9.92067 10.9687H8.77609V10.3437H9.92067V10.9687Z" fill="#05A984"/>
<path fill-rule="evenodd" clip-rule="evenodd" d="M11.0678 14.3021H9.92317V13.6771H11.0678V14.3021Z" fill="#05A984"/>
<path fill-rule="evenodd" clip-rule="evenodd" d="M6.58734 11.3854H5.44276V10.7604H6.58734V11.3854Z" fill="#05A984"/>
<path fill-rule="evenodd" clip-rule="evenodd" d="M5.33734 12.6354H4.19276V12.0104H5.33734V12.6354Z" fill="#05A984"/>
<path fill-rule="evenodd" clip-rule="evenodd" d="M15.0261 13.8854H13.8815V13.2604H15.0261V13.8854Z" fill="#05A984"/>
<path fill-rule="evenodd" clip-rule="evenodd" d="M16.1953 15.9687H15.0507V15.3437H16.1953V15.9687Z" fill="#05A984"/>
</svg>
