<svg width="21" height="21" viewBox="0 0 21 21" fill="none" xmlns="http://www.w3.org/2000/svg">
<path fill-rule="evenodd" clip-rule="evenodd" d="M2.27081 16.1131C2.27081 15.7104 2.59727 15.384 2.99998 15.384H14.6666C15.0694 15.384 15.3958 15.7104 15.3958 16.1131V17.9187C15.3958 18.3214 15.0694 18.6479 14.6666 18.6479H2.99998C2.59727 18.6479 2.27081 18.3214 2.27081 17.9187V16.1131ZM2.99998 16.009C2.94245 16.009 2.89581 16.0556 2.89581 16.1131V17.9187C2.89581 17.9762 2.94245 18.0229 2.99998 18.0229H14.6666C14.7242 18.0229 14.7708 17.9762 14.7708 17.9187V16.1131C14.7708 16.0556 14.7242 16.009 14.6666 16.009H2.99998Z" fill="#05A984"/>
<path fill-rule="evenodd" clip-rule="evenodd" d="M5.37201 13.4742C5.37201 13.0715 5.69847 12.7451 6.10118 12.7451H18C18.4027 12.7451 18.7292 13.0715 18.7292 13.4742V15.2798C18.7292 15.6825 18.4027 16.009 18 16.009H6.10118C5.69847 16.009 5.37201 15.6825 5.37201 15.2798V13.4742ZM6.10118 13.3701C6.04365 13.3701 5.99701 13.4167 5.99701 13.4742V15.2798C5.99701 15.3373 6.04365 15.384 6.10118 15.384H18C18.0575 15.384 18.1042 15.3373 18.1042 15.2798V13.4742C18.1042 13.4167 18.0575 13.3701 18 13.3701H6.10118Z" fill="#05A984"/>
<path fill-rule="evenodd" clip-rule="evenodd" d="M6.43748 13.0854V10.424H7.06248V13.0854H6.43748Z" fill="#05A984"/>
<path fill-rule="evenodd" clip-rule="evenodd" d="M10.6041 13.0854V10.9855H11.2291V13.0854H10.6041Z" fill="#05A984"/>
<path fill-rule="evenodd" clip-rule="evenodd" d="M9.65474 15.6965V13.035H10.2797V15.6965H9.65474Z" fill="#05A984"/>
<path fill-rule="evenodd" clip-rule="evenodd" d="M13.8214 15.6965V13.035H14.4464V15.6965H13.8214Z" fill="#05A984"/>
<path fill-rule="evenodd" clip-rule="evenodd" d="M6.43748 18.2468V15.5854H7.06248V18.2468H6.43748Z" fill="#05A984"/>
<path fill-rule="evenodd" clip-rule="evenodd" d="M10.6041 18.2468V15.5854H11.2291V18.2468H10.6041Z" fill="#05A984"/>
<path fill-rule="evenodd" clip-rule="evenodd" d="M2.99998 10.7312C2.94245 10.7312 2.89581 10.7779 2.89581 10.8354V12.641C2.89581 12.6985 2.94245 12.7451 2.99998 12.7451H14.6666C14.7242 12.7451 14.7708 12.6985 14.7708 12.641V10.8354C14.7708 10.7779 14.7242 10.7312 14.6666 10.7312H11.9404L9.81584 11.9885C9.28241 12.3041 8.62335 11.8525 8.72525 11.2411L8.81022 10.7312H2.99998ZM2.27081 10.8354C2.27081 10.4327 2.59727 10.1062 2.99998 10.1062H9.548L9.34175 11.3438C9.32719 11.4311 9.42134 11.4957 9.49754 11.4506L11.7693 10.1062H14.6666C15.0694 10.1062 15.3958 10.4327 15.3958 10.8354V12.641C15.3958 13.0437 15.0694 13.3701 14.6666 13.3701H2.99998C2.59727 13.3701 2.27081 13.0437 2.27081 12.641V10.8354Z" fill="#05A984"/>
<path fill-rule="evenodd" clip-rule="evenodd" d="M9.81584 11.9885C9.28241 12.3041 8.62335 11.8525 8.72525 11.2411L9.301 7.78638C9.38865 7.26046 9.99265 7.00337 10.4325 7.30477L12.8708 8.97581C13.3106 9.27721 13.2888 9.93329 12.83 10.2048L9.81584 11.9885ZM9.34175 11.3438C9.32719 11.4311 9.42134 11.4957 9.49754 11.4506L12.5117 9.66694C12.5772 9.62815 12.5803 9.53442 12.5175 9.49137L10.0791 7.82032C10.0163 7.77726 9.93002 7.81399 9.9175 7.88912L9.34175 11.3438Z" fill="#05A984"/>
<path fill-rule="evenodd" clip-rule="evenodd" d="M13.6486 6.59767L12.3696 5.72119L14.4477 2.68887C14.6897 2.3357 15.1723 2.2456 15.5254 2.48764C15.8786 2.72967 15.9687 3.21218 15.7267 3.56535L13.6486 6.59767ZM13.4863 5.7288L15.2111 3.21204C15.258 3.1436 15.2406 3.05009 15.1721 3.00319C15.1037 2.95628 15.0102 2.97374 14.9633 3.04219L13.2385 5.55895L13.4863 5.7288Z" fill="#05A984"/>
<path fill-rule="evenodd" clip-rule="evenodd" d="M10.6224 9.53925C10.48 9.44168 10.4437 9.24718 10.5412 9.10481L12.88 5.69214C12.9775 5.54978 13.172 5.51346 13.3144 5.61102C13.4568 5.70859 13.4931 5.90309 13.3955 6.04546L11.0568 9.45813C10.9592 9.60049 10.7647 9.63681 10.6224 9.53925Z" fill="#05A984"/>
</svg>
